<svg width="330" height="468" viewBox="0 0 330 468" fill="none" xmlns="http://www.w3.org/2000/svg">
<rect x="303.533" y="177.52" width="61.2157" height="61.2157" transform="rotate(-75 303.533 177.52)" fill="#D9D9D9"/>
<rect x="154.866" y="440.022" width="61.2157" height="61.2157" transform="rotate(-75 154.866 440.022)" fill="#7B5B4F"/>
<rect x="162.387" y="207.049" width="61.2157" height="61.2157" transform="rotate(-75 162.387 207.049)" fill="#8FC9DF"/>
<rect x="122.821" y="386.519" width="17.88" height="17.88" transform="rotate(-75 122.821 386.519)" fill="#E6A486"/>
<rect x="206.271" y="269.058" width="17.88" height="17.88" transform="rotate(-75 206.271 269.058)" fill="#7B5B4F"/>
<rect x="188.187" y="79.7353" width="17.88" height="17.88" transform="rotate(-75 188.187 79.7353)" fill="#283D48"/>
<rect x="274.452" y="121.151" width="17.88" height="17.88" transform="rotate(-75 274.452 121.151)" fill="#283D48"/>
<rect x="211.491" y="132.099" width="17.88" height="17.88" transform="rotate(-75 211.491 132.099)" fill="#283D48"/>
<rect x="219.666" y="372.258" width="179" height="179" transform="rotate(-75 219.666 372.258)" fill="#E6A486"/>
</svg>
