<svg width="393" height="304" viewBox="0 0 393 304" fill="none" xmlns="http://www.w3.org/2000/svg">
<rect x="237.286" y="261" width="61.2157" height="61.2157" transform="rotate(45 237.286 261)" fill="#D9D9D9"/>
<rect x="84.2861" y="1" width="61.2157" height="61.2157" transform="rotate(45 84.2861 1)" fill="#7B5B4F"/>
<rect x="282.286" y="124" width="61.2157" height="61.2157" transform="rotate(45 282.286 124)" fill="#8FC9DF"/>
<rect x="146.643" width="17.88" height="17.88" transform="rotate(45 146.643 0)" fill="#E6A486"/>
<rect x="206.643" y="131" width="17.88" height="17.88" transform="rotate(45 206.643 131)" fill="#7B5B4F"/>
<rect x="379.643" y="210" width="17.88" height="17.88" transform="rotate(45 379.643 210)" fill="#283D48"/>
<rect x="300.643" y="264" width="17.88" height="17.88" transform="rotate(45 300.643 264)" fill="#283D48"/>
<rect x="322.643" y="204" width="17.88" height="17.88" transform="rotate(45 322.643 204)" fill="#283D48"/>
<rect x="110.572" y="91" width="179" height="179" transform="rotate(45 110.572 91)" fill="#E6A486"/>
</svg>
