<svg width="24" height="24" viewBox="0 0 34 34" fill="none" xmlns="http://www.w3.org/2000/svg">
<path d="M11.6667 7.5269V22.4132M22.3333 11.5868V26.4731M23.2278 32.7857L31.8944 28.3875C32.572 28.0436 33 27.3407 33 26.5718V4.04493C33 2.5359 31.4354 1.55442 30.1056 2.22928L23.2278 5.71969C22.6647 6.00543 22.002 6.00543 21.4389 5.71969L12.5611 1.21431C11.998 0.928564 11.3353 0.928564 10.7722 1.21431L2.10557 5.61253C1.428 5.95639 1 6.65929 1 7.42818V29.9551C1 31.4641 2.56462 32.4456 3.89443 31.7707L10.7722 28.2803C11.3353 27.9946 11.998 27.9946 12.5611 28.2803L21.4389 32.7857C22.002 33.0714 22.6647 33.0714 23.2278 32.7857Z" stroke="white" stroke-width="1.5" stroke-linecap="round" stroke-linejoin="round"/>
</svg>
