<svg width="237" height="42" viewBox="0 0 237 42" fill="none" xmlns="http://www.w3.org/2000/svg">
<path d="M61.0455 34H53.7841V7.81818H61.608C64.0625 7.81818 66.1634 8.33807 67.9105 9.37784C69.6577 10.4176 70.9957 11.9091 71.9247 13.8523C72.8622 15.7869 73.3267 18.1094 73.3182 20.8196C73.3097 23.5895 72.8239 25.9588 71.8608 27.9276C70.8977 29.8878 69.5043 31.392 67.6804 32.4403C65.8565 33.4801 63.6449 34 61.0455 34ZM55.3821 32.517H60.9815C63.3168 32.517 65.2855 32.0526 66.8878 31.1236C68.4901 30.1861 69.7003 28.8437 70.5185 27.0966C71.3452 25.3494 71.7543 23.2571 71.7457 20.8196C71.7457 18.4162 71.3494 16.358 70.5568 14.6449C69.7642 12.9233 68.6094 11.6023 67.0923 10.6818C65.5838 9.76136 63.7344 9.30114 61.544 9.30114H55.3821V32.517ZM84.207 34.4219C83.0735 34.4219 82.0337 34.196 81.0877 33.7443C80.1502 33.2926 79.396 32.6321 78.8249 31.7628C78.2624 30.8935 77.9812 29.8366 77.9812 28.5923C77.9812 27.7741 78.1261 27.054 78.4158 26.4318C78.7056 25.8097 79.1531 25.2727 79.7582 24.821C80.3633 24.3693 81.1388 23.9986 82.0849 23.7088C83.0309 23.4105 84.1602 23.1804 85.4727 23.0185C86.4698 22.8991 87.3604 22.7841 88.1445 22.6733C88.9286 22.554 89.5423 22.3707 89.9854 22.1236C90.4371 21.8764 90.663 21.5014 90.663 20.9986V20.1804C90.663 18.7486 90.2113 17.6108 89.3079 16.767C88.4045 15.9233 87.1602 15.5014 85.5749 15.5014C84.1687 15.5014 82.984 15.8125 82.021 16.4347C81.0664 17.0483 80.3974 17.8409 80.0138 18.8125L78.5437 18.2628C78.9187 17.3253 79.4599 16.5455 80.1673 15.9233C80.8832 15.3011 81.7013 14.8366 82.6218 14.5298C83.5508 14.223 84.5224 14.0696 85.5366 14.0696C86.4144 14.0696 87.2496 14.1932 88.0423 14.4403C88.8434 14.6875 89.555 15.0625 90.1772 15.5653C90.8079 16.0682 91.3065 16.7116 91.6729 17.4957C92.0394 18.2713 92.2227 19.2003 92.2227 20.2827V34H90.663V30.4588H90.5479C90.207 31.1918 89.7383 31.8608 89.1417 32.4659C88.5536 33.0625 87.842 33.5398 87.0067 33.8977C86.18 34.2472 85.2468 34.4219 84.207 34.4219ZM84.3604 32.9773C85.5877 32.9773 86.6744 32.679 87.6204 32.0824C88.5749 31.4773 89.3207 30.6506 89.8576 29.6023C90.3945 28.554 90.663 27.3651 90.663 26.0355V23.1463C90.467 23.3168 90.1815 23.4702 89.8065 23.6065C89.44 23.7344 89.0224 23.8494 88.5536 23.9517C88.0934 24.0455 87.6076 24.1307 87.0962 24.2074C86.5934 24.2756 86.1033 24.3395 85.6261 24.3991C84.1942 24.5696 83.0266 24.8338 82.1232 25.1918C81.2283 25.5412 80.5721 26.0014 80.1545 26.5724C79.7454 27.1435 79.5408 27.8338 79.5408 28.6435C79.5408 29.9815 80.0011 31.0384 80.9215 31.8139C81.842 32.5895 82.9883 32.9773 84.3604 32.9773ZM105.703 14.3636V15.7571H97.1254V14.3636H105.703ZM100.027 9.65909H101.574V29.3594C101.574 30.1605 101.728 30.8168 102.034 31.3281C102.35 31.831 102.759 32.206 103.262 32.4531C103.773 32.6918 104.319 32.8111 104.898 32.8111C105.179 32.8111 105.422 32.7898 105.627 32.7472C105.84 32.7045 106.04 32.6491 106.228 32.581L106.611 34C106.373 34.0852 106.108 34.1577 105.819 34.2173C105.529 34.2855 105.188 34.3196 104.796 34.3196C103.978 34.3196 103.202 34.1364 102.469 33.7699C101.745 33.4034 101.157 32.8707 100.705 32.1719C100.253 31.473 100.027 30.6293 100.027 29.6406V9.65909ZM116.691 34.4219C115.558 34.4219 114.518 34.196 113.572 33.7443C112.635 33.2926 111.88 32.6321 111.309 31.7628C110.747 30.8935 110.466 29.8366 110.466 28.5923C110.466 27.7741 110.61 27.054 110.9 26.4318C111.19 25.8097 111.637 25.2727 112.243 24.821C112.848 24.3693 113.623 23.9986 114.569 23.7088C115.515 23.4105 116.645 23.1804 117.957 23.0185C118.954 22.8991 119.845 22.7841 120.629 22.6733C121.413 22.554 122.027 22.3707 122.47 22.1236C122.922 21.8764 123.147 21.5014 123.147 20.9986V20.1804C123.147 18.7486 122.696 17.6108 121.792 16.767C120.889 15.9233 119.645 15.5014 118.059 15.5014C116.653 15.5014 115.468 15.8125 114.505 16.4347C113.551 17.0483 112.882 17.8409 112.498 18.8125L111.028 18.2628C111.403 17.3253 111.944 16.5455 112.652 15.9233C113.368 15.3011 114.186 14.8366 115.106 14.5298C116.035 14.223 117.007 14.0696 118.021 14.0696C118.899 14.0696 119.734 14.1932 120.527 14.4403C121.328 14.6875 122.039 15.0625 122.662 15.5653C123.292 16.0682 123.791 16.7116 124.157 17.4957C124.524 18.2713 124.707 19.2003 124.707 20.2827V34H123.147V30.4588H123.032C122.691 31.1918 122.223 31.8608 121.626 32.4659C121.038 33.0625 120.326 33.5398 119.491 33.8977C118.664 34.2472 117.731 34.4219 116.691 34.4219ZM116.845 32.9773C118.072 32.9773 119.159 32.679 120.105 32.0824C121.059 31.4773 121.805 30.6506 122.342 29.6023C122.879 28.554 123.147 27.3651 123.147 26.0355V23.1463C122.951 23.3168 122.666 23.4702 122.291 23.6065C121.924 23.7344 121.507 23.8494 121.038 23.9517C120.578 24.0455 120.092 24.1307 119.581 24.2074C119.078 24.2756 118.588 24.3395 118.11 24.3991C116.679 24.5696 115.511 24.8338 114.608 25.1918C113.713 25.5412 113.056 26.0014 112.639 26.5724C112.23 27.1435 112.025 27.8338 112.025 28.6435C112.025 29.9815 112.485 31.0384 113.406 31.8139C114.326 32.5895 115.473 32.9773 116.845 32.9773ZM144.823 15.0156C144.703 13.8991 144.201 13.0298 143.314 12.4077C142.436 11.7855 141.294 11.4744 139.888 11.4744C138.9 11.4744 138.051 11.6236 137.344 11.9219C136.637 12.2202 136.096 12.625 135.721 13.1364C135.346 13.6477 135.154 14.2315 135.145 14.8878C135.145 15.4332 135.269 15.9062 135.516 16.3068C135.772 16.7074 136.117 17.0483 136.551 17.3295C136.986 17.6023 137.468 17.8324 137.996 18.0199C138.525 18.2074 139.057 18.3651 139.594 18.4929L142.049 19.1065C143.037 19.3366 143.988 19.6477 144.9 20.0398C145.82 20.4318 146.642 20.9261 147.367 21.5227C148.1 22.1193 148.679 22.8395 149.105 23.6832C149.532 24.527 149.745 25.5156 149.745 26.6491C149.745 28.1832 149.353 29.5341 148.569 30.7017C147.784 31.8608 146.651 32.7685 145.168 33.4247C143.694 34.0724 141.908 34.3963 139.811 34.3963C137.775 34.3963 136.006 34.081 134.506 33.4503C133.015 32.8196 131.847 31.8991 131.003 30.6889C130.168 29.4787 129.716 28.0043 129.648 26.2656H134.314C134.382 27.1776 134.664 27.9361 135.158 28.5412C135.652 29.1463 136.296 29.598 137.088 29.8963C137.89 30.1946 138.784 30.3438 139.773 30.3438C140.804 30.3438 141.708 30.1903 142.483 29.8835C143.267 29.5682 143.881 29.1335 144.324 28.5795C144.767 28.017 144.993 27.3608 145.002 26.6108C144.993 25.929 144.793 25.3665 144.401 24.9233C144.009 24.4716 143.459 24.0966 142.752 23.7983C142.053 23.4915 141.235 23.2187 140.297 22.9801L137.319 22.2131C135.162 21.6591 133.458 20.8196 132.205 19.6946C130.961 18.5611 130.338 17.0568 130.338 15.1818C130.338 13.6392 130.756 12.2884 131.591 11.1293C132.435 9.97017 133.581 9.07102 135.03 8.43182C136.479 7.78409 138.12 7.46023 139.952 7.46023C141.81 7.46023 143.438 7.78409 144.836 8.43182C146.242 9.07102 147.346 9.96165 148.147 11.1037C148.948 12.2372 149.361 13.5412 149.387 15.0156H144.823ZM153.768 41.3636V14.3636H158.32V17.6108H158.588C158.827 17.1335 159.163 16.6264 159.598 16.0895C160.033 15.544 160.621 15.0795 161.362 14.696C162.104 14.304 163.05 14.108 164.2 14.108C165.717 14.108 167.085 14.4957 168.304 15.2713C169.531 16.0384 170.503 17.1761 171.219 18.6847C171.943 20.1847 172.305 22.0256 172.305 24.2074C172.305 26.3636 171.952 28.196 171.244 29.7045C170.537 31.2131 169.574 32.3636 168.355 33.1562C167.136 33.9489 165.756 34.3452 164.213 34.3452C163.088 34.3452 162.155 34.1577 161.413 33.7827C160.672 33.4077 160.075 32.956 159.624 32.4276C159.18 31.8906 158.835 31.3835 158.588 30.9062H158.396V41.3636H153.768ZM158.307 24.1818C158.307 25.4517 158.486 26.5639 158.844 27.5185C159.21 28.473 159.734 29.2187 160.416 29.7557C161.107 30.2841 161.942 30.5483 162.922 30.5483C163.945 30.5483 164.801 30.2756 165.491 29.7301C166.182 29.1761 166.702 28.4219 167.051 27.4673C167.409 26.5043 167.588 25.4091 167.588 24.1818C167.588 22.9631 167.413 21.8807 167.064 20.9347C166.714 19.9886 166.195 19.2472 165.504 18.7102C164.814 18.1733 163.953 17.9048 162.922 17.9048C161.933 17.9048 161.094 18.1648 160.403 18.6847C159.713 19.2045 159.189 19.9332 158.831 20.8707C158.482 21.8082 158.307 22.9119 158.307 24.1818ZM181.919 34.3963C180.675 34.3963 179.554 34.1747 178.557 33.7315C177.568 33.2798 176.784 32.6151 176.205 31.7372C175.634 30.8594 175.348 29.777 175.348 28.4901C175.348 27.3821 175.553 26.4659 175.962 25.7415C176.371 25.017 176.929 24.4375 177.636 24.0028C178.344 23.5682 179.141 23.2401 180.027 23.0185C180.922 22.7884 181.847 22.6222 182.801 22.5199C183.952 22.4006 184.885 22.294 185.601 22.2003C186.317 22.098 186.837 21.9446 187.161 21.7401C187.493 21.527 187.659 21.1989 187.659 20.7557V20.679C187.659 19.7159 187.374 18.9702 186.803 18.4418C186.232 17.9134 185.409 17.6491 184.335 17.6491C183.202 17.6491 182.303 17.8963 181.638 18.3906C180.982 18.8849 180.538 19.4687 180.308 20.142L175.987 19.5284C176.328 18.3352 176.891 17.3381 177.675 16.5369C178.459 15.7273 179.418 15.1222 180.551 14.7216C181.685 14.3125 182.938 14.108 184.31 14.108C185.256 14.108 186.197 14.2188 187.135 14.4403C188.072 14.6619 188.929 15.0284 189.705 15.5398C190.48 16.0426 191.102 16.7287 191.571 17.598C192.048 18.4673 192.287 19.554 192.287 20.858V34H187.838V31.3026H187.685C187.403 31.848 187.007 32.3594 186.496 32.8366C185.993 33.3054 185.358 33.6847 184.591 33.9744C183.832 34.2557 182.942 34.3963 181.919 34.3963ZM183.121 30.9957C184.05 30.9957 184.855 30.8125 185.537 30.446C186.219 30.071 186.743 29.5767 187.109 28.9631C187.484 28.3494 187.672 27.6804 187.672 26.956V24.642C187.527 24.7614 187.28 24.8722 186.93 24.9744C186.589 25.0767 186.206 25.1662 185.78 25.2429C185.354 25.3196 184.932 25.3878 184.514 25.4474C184.097 25.5071 183.734 25.5582 183.428 25.6009C182.737 25.6946 182.119 25.848 181.574 26.0611C181.028 26.2741 180.598 26.5724 180.283 26.956C179.967 27.331 179.81 27.8168 179.81 28.4134C179.81 29.2656 180.121 29.9091 180.743 30.3438C181.365 30.7784 182.158 30.9957 183.121 30.9957ZM205.506 34.3835C203.545 34.3835 201.862 33.9531 200.456 33.0923C199.058 32.2315 197.98 31.0426 197.222 29.5256C196.472 28 196.097 26.2443 196.097 24.2585C196.097 22.2642 196.48 20.5043 197.247 18.9787C198.014 17.4446 199.097 16.2514 200.494 15.3991C201.901 14.5384 203.563 14.108 205.48 14.108C207.074 14.108 208.484 14.402 209.712 14.9901C210.947 15.5696 211.932 16.392 212.665 17.4574C213.398 18.5142 213.815 19.75 213.918 21.1648H209.494C209.315 20.2187 208.889 19.4304 208.216 18.7997C207.551 18.1605 206.661 17.8409 205.544 17.8409C204.598 17.8409 203.767 18.0966 203.051 18.608C202.335 19.1108 201.777 19.8352 201.376 20.7812C200.984 21.7273 200.788 22.8608 200.788 24.1818C200.788 25.5199 200.984 26.6705 201.376 27.6335C201.768 28.5881 202.318 29.3253 203.026 29.8452C203.741 30.3565 204.581 30.6122 205.544 30.6122C206.226 30.6122 206.835 30.4844 207.372 30.2287C207.918 29.9645 208.374 29.5852 208.74 29.0909C209.107 28.5966 209.358 27.9957 209.494 27.2884H213.918C213.807 28.6776 213.398 29.9091 212.69 30.983C211.983 32.0483 211.02 32.8835 209.801 33.4886C208.582 34.0852 207.151 34.3835 205.506 34.3835ZM226.411 34.3835C224.442 34.3835 222.742 33.9744 221.31 33.1562C219.887 32.3295 218.792 31.1619 218.025 29.6534C217.257 28.1364 216.874 26.3509 216.874 24.2969C216.874 22.277 217.257 20.5043 218.025 18.9787C218.8 17.4446 219.882 16.2514 221.272 15.3991C222.661 14.5384 224.293 14.108 226.168 14.108C227.378 14.108 228.52 14.304 229.594 14.696C230.676 15.0795 231.631 15.6761 232.458 16.4858C233.293 17.2955 233.949 18.3267 234.426 19.5795C234.904 20.8239 235.142 22.3068 235.142 24.0284V25.4474H219.047V22.3281H230.706C230.698 21.4418 230.506 20.6534 230.131 19.9631C229.756 19.2642 229.232 18.7145 228.559 18.3139C227.894 17.9134 227.118 17.7131 226.232 17.7131C225.286 17.7131 224.455 17.9432 223.739 18.4034C223.023 18.8551 222.465 19.4517 222.064 20.1932C221.672 20.9261 221.472 21.7315 221.463 22.6094V25.3324C221.463 26.4744 221.672 27.4545 222.09 28.2727C222.507 29.0824 223.091 29.7045 223.841 30.1392C224.591 30.5653 225.469 30.7784 226.475 30.7784C227.148 30.7784 227.757 30.6847 228.303 30.4972C228.848 30.3011 229.321 30.0156 229.722 29.6406C230.123 29.2656 230.425 28.8011 230.63 28.2472L234.951 28.733C234.678 29.875 234.158 30.8722 233.391 31.7244C232.632 32.5682 231.661 33.2244 230.476 33.6932C229.292 34.1534 227.936 34.3835 226.411 34.3835Z" fill="white"/>
<path d="M22.5625 9.63765C22.5625 9.07532 22.8571 8.56704 23.1977 8.11965C23.5475 7.66033 23.75 7.1155 23.75 6.53125C23.75 4.89165 22.155 3.5625 20.1875 3.5625C18.22 3.5625 16.625 4.89165 16.625 6.53125C16.625 7.1155 16.8275 7.66033 17.1773 8.11965C17.5179 8.56704 17.8125 9.07532 17.8125 9.63765V9.63765C17.8125 10.2097 17.3441 10.6716 16.7723 10.6551C14.5499 10.5911 12.3513 10.4317 10.1807 10.1808C10.4757 12.7344 10.6443 15.3265 10.6798 17.9507C10.6876 18.5301 10.2171 18.9999 9.63765 19V19C9.07532 19 8.56704 18.7054 8.11965 18.3648C7.66033 18.015 7.1155 17.8125 6.53125 17.8125C4.89165 17.8125 3.5625 19.4075 3.5625 21.375C3.5625 23.3425 4.89165 24.9375 6.53125 24.9375C7.1155 24.9375 7.66033 24.735 8.11965 24.3852C8.56704 24.0446 9.07532 23.75 9.63765 23.75V23.75C10.1272 23.75 10.5158 24.1629 10.4799 24.6511C10.2807 27.3618 9.93925 30.033 9.46307 32.6572C11.8664 32.9581 14.3046 33.1468 16.7723 33.2179C17.3442 33.2343 17.8127 32.7723 17.8127 32.2002V32.2002C17.8127 31.6379 17.5181 31.1296 17.1774 30.6822C16.8277 30.2229 16.6252 29.6781 16.6252 29.0938C16.6252 27.4542 18.2202 26.1251 20.1877 26.1251C22.1552 26.1251 23.7502 27.4542 23.7502 29.0938C23.7502 29.6781 23.5477 30.2229 23.1979 30.6822C22.8573 31.1296 22.5627 31.6379 22.5627 32.2002V32.2002C22.5627 32.7273 23.0029 33.1481 23.5291 33.1172C26.4405 32.9461 29.3078 32.6112 32.122 32.1214C32.5487 29.67 32.8578 27.1783 33.0436 24.6522C33.0795 24.1634 32.6904 23.7501 32.2003 23.7501V23.7501C31.638 23.7501 31.1297 24.0447 30.6823 24.3853C30.223 24.735 29.6782 24.9376 29.0939 24.9376C27.4543 24.9376 26.1252 23.3426 26.1252 21.3751C26.1252 19.4076 27.4543 17.8126 29.0939 17.8126C29.6782 17.8126 30.223 18.0151 30.6823 18.3648C31.1297 18.7055 31.638 19.0001 32.2003 19.0001V19.0001C32.7804 19.0001 33.2513 18.5298 33.2435 17.9498C33.2046 15.0799 33.0066 12.2482 32.658 9.46354C29.6721 10.0053 26.6253 10.3727 23.5288 10.5546C23.0027 10.5855 22.5625 10.1647 22.5625 9.63765V9.63765Z" stroke="white" stroke-width="1.5" stroke-linecap="round" stroke-linejoin="round"/>
</svg>
