<svg width="391" height="35" viewBox="0 0 391 35" fill="none" xmlns="http://www.w3.org/2000/svg">
<path d="M0.275568 27V0.818181H17.9176V5.3821H5.81108V11.6207H17.0099V16.1847H5.81108V22.4361H17.9688V27H0.275568ZM26.7674 7.36364L30.3725 14.2287L34.0671 7.36364H39.6538L33.9648 17.1818L39.8072 27H34.2461L30.3725 20.2116L26.5629 27H20.9379L26.7674 17.1818L21.1424 7.36364H26.7674ZM42.8881 34.3636V7.36364H48.2575V10.6619H48.5004C48.739 10.1335 49.0842 9.59659 49.5359 9.05114C49.9961 8.49716 50.5927 8.03693 51.3256 7.67045C52.0671 7.29545 52.9876 7.10795 54.087 7.10795C55.5188 7.10795 56.8398 7.48295 58.0501 8.23295C59.2603 8.97443 60.2276 10.0952 60.9521 11.5952C61.6765 13.0866 62.0387 14.9574 62.0387 17.2074C62.0387 19.3977 61.685 21.2472 60.9776 22.7557C60.2788 24.2557 59.3242 25.3935 58.114 26.169C56.9123 26.9361 55.5657 27.3196 54.0742 27.3196C53.0174 27.3196 52.1183 27.1449 51.3768 26.7955C50.6438 26.446 50.043 26.0071 49.5742 25.4787C49.1055 24.9418 48.7475 24.4006 48.5004 23.8551H48.3342V34.3636H42.8881ZM48.2191 17.1818C48.2191 18.3494 48.381 19.3679 48.7049 20.2372C49.0288 21.1065 49.4975 21.7841 50.1112 22.2699C50.7248 22.7472 51.4705 22.9858 52.3484 22.9858C53.2347 22.9858 53.9847 22.7429 54.5984 22.2571C55.212 21.7628 55.6765 21.081 55.9918 20.2116C56.3157 19.3338 56.4776 18.3239 56.4776 17.1818C56.4776 16.0483 56.32 15.0511 56.0046 14.1903C55.6893 13.3295 55.2248 12.6562 54.6112 12.1705C53.9975 11.6847 53.2433 11.4418 52.3484 11.4418C51.462 11.4418 50.712 11.6761 50.0984 12.1449C49.4933 12.6136 49.0288 13.2784 48.7049 14.1392C48.381 15 48.2191 16.0142 48.2191 17.1818ZM71.1154 0.818181V27H65.6694V0.818181H71.1154ZM84.3501 27.3835C82.3643 27.3835 80.647 26.9616 79.1982 26.1179C77.7578 25.2656 76.6456 24.081 75.8615 22.5639C75.0774 21.0384 74.6854 19.2699 74.6854 17.2585C74.6854 15.2301 75.0774 13.4574 75.8615 11.9403C76.6456 10.4148 77.7578 9.23011 79.1982 8.38636C80.647 7.53409 82.3643 7.10795 84.3501 7.10795C86.3359 7.10795 88.049 7.53409 89.4893 8.38636C90.9382 9.23011 92.0547 10.4148 92.8388 11.9403C93.6229 13.4574 94.0149 15.2301 94.0149 17.2585C94.0149 19.2699 93.6229 21.0384 92.8388 22.5639C92.0547 24.081 90.9382 25.2656 89.4893 26.1179C88.049 26.9616 86.3359 27.3835 84.3501 27.3835ZM84.3757 23.1648C85.2791 23.1648 86.0334 22.9091 86.6385 22.3977C87.2436 21.8778 87.6996 21.1705 88.0064 20.2756C88.3217 19.3807 88.4794 18.3622 88.4794 17.2202C88.4794 16.0781 88.3217 15.0597 88.0064 14.1648C87.6996 13.2699 87.2436 12.5625 86.6385 12.0426C86.0334 11.5227 85.2791 11.2628 84.3757 11.2628C83.4638 11.2628 82.6967 11.5227 82.0746 12.0426C81.4609 12.5625 80.9964 13.2699 80.6811 14.1648C80.3743 15.0597 80.2209 16.0781 80.2209 17.2202C80.2209 18.3622 80.3743 19.3807 80.6811 20.2756C80.9964 21.1705 81.4609 21.8778 82.0746 22.3977C82.6967 22.9091 83.4638 23.1648 84.3757 23.1648ZM97.5561 27V7.36364H102.836V10.7898H103.04C103.398 9.57102 103.999 8.65057 104.843 8.02841C105.687 7.39773 106.658 7.08239 107.758 7.08239C108.031 7.08239 108.325 7.09943 108.64 7.13352C108.955 7.16761 109.232 7.21449 109.471 7.27415V12.1065C109.215 12.0298 108.862 11.9616 108.41 11.902C107.958 11.8423 107.545 11.8125 107.17 11.8125C106.369 11.8125 105.653 11.9872 105.022 12.3366C104.4 12.6776 103.906 13.1548 103.539 13.7685C103.181 14.3821 103.002 15.0895 103.002 15.8906V27H97.5561ZM120.321 27.3835C118.301 27.3835 116.563 26.9744 115.105 26.1562C113.657 25.3295 112.54 24.1619 111.756 22.6534C110.972 21.1364 110.58 19.3423 110.58 17.2713C110.58 15.2514 110.972 13.4787 111.756 11.9531C112.54 10.4276 113.644 9.23864 115.067 8.38636C116.499 7.53409 118.178 7.10795 120.104 7.10795C121.4 7.10795 122.605 7.31676 123.722 7.73438C124.847 8.14347 125.827 8.76136 126.662 9.58807C127.506 10.4148 128.162 11.4545 128.631 12.7074C129.1 13.9517 129.334 15.4091 129.334 17.0795V18.5753H112.753V15.2003H124.208C124.208 14.4162 124.037 13.7216 123.696 13.1165C123.355 12.5114 122.882 12.0384 122.277 11.6974C121.681 11.348 120.986 11.1733 120.194 11.1733C119.367 11.1733 118.634 11.3651 117.995 11.7486C117.364 12.1236 116.87 12.6307 116.512 13.2699C116.154 13.9006 115.971 14.6037 115.962 15.3793V18.5881C115.962 19.5597 116.141 20.3991 116.499 21.1065C116.865 21.8139 117.381 22.3594 118.046 22.7429C118.711 23.1264 119.499 23.3182 120.411 23.3182C121.016 23.3182 121.57 23.233 122.073 23.0625C122.576 22.892 123.006 22.6364 123.364 22.2955C123.722 21.9545 123.995 21.5369 124.182 21.0426L129.219 21.375C128.963 22.5852 128.439 23.642 127.647 24.5455C126.863 25.4403 125.848 26.1392 124.604 26.642C123.368 27.1364 121.941 27.3835 120.321 27.3835ZM152.141 7.36364V9.92045H141.965V7.36364H152.141ZM144.931 2.65909H147.948V21.375C147.948 22.2273 148.071 22.8665 148.319 23.2926C148.574 23.7102 148.898 23.9915 149.29 24.1364C149.691 24.2727 150.113 24.3409 150.556 24.3409C150.888 24.3409 151.161 24.3239 151.374 24.2898C151.587 24.2472 151.757 24.2131 151.885 24.1875L152.499 26.8977C152.294 26.9744 152.009 27.0511 151.642 27.1278C151.276 27.2131 150.811 27.2557 150.249 27.2557C149.397 27.2557 148.561 27.0724 147.743 26.706C146.934 26.3395 146.26 25.7812 145.723 25.0312C145.195 24.2812 144.931 23.3352 144.931 22.1932V2.65909ZM160.118 15.1875V27H157.101V0.818181H160.118V10.4318H160.374C160.834 9.41761 161.525 8.61222 162.445 8.01562C163.374 7.41051 164.61 7.10795 166.152 7.10795C167.49 7.10795 168.662 7.37642 169.668 7.91335C170.674 8.44176 171.453 9.25568 172.007 10.3551C172.57 11.446 172.851 12.8352 172.851 14.5227V27H169.834V14.7273C169.834 13.1676 169.429 11.9616 168.62 11.1094C167.819 10.2486 166.706 9.81818 165.283 9.81818C164.294 9.81818 163.408 10.027 162.624 10.4446C161.848 10.8622 161.235 11.4716 160.783 12.2727C160.34 13.0739 160.118 14.0455 160.118 15.1875ZM186.604 27.4091C184.712 27.4091 183.08 26.9915 181.707 26.1562C180.344 25.3125 179.291 24.1364 178.55 22.6278C177.817 21.1108 177.45 19.3466 177.45 17.3352C177.45 15.3239 177.817 13.5511 178.55 12.017C179.291 10.4744 180.322 9.27273 181.643 8.41193C182.973 7.54261 184.524 7.10795 186.297 7.10795C187.32 7.10795 188.33 7.27841 189.327 7.61932C190.324 7.96023 191.232 8.5142 192.05 9.28125C192.868 10.0398 193.52 11.0455 194.006 12.2983C194.491 13.5511 194.734 15.0937 194.734 16.9261V18.2045H179.598V15.5966H191.666C191.666 14.4886 191.445 13.5 191.001 12.6307C190.567 11.7614 189.945 11.0753 189.135 10.5724C188.334 10.0696 187.388 9.81818 186.297 9.81818C185.095 9.81818 184.055 10.1165 183.178 10.7131C182.308 11.3011 181.639 12.0682 181.17 13.0142C180.702 13.9602 180.467 14.9744 180.467 16.0568V17.7955C180.467 19.2784 180.723 20.5355 181.234 21.5668C181.754 22.5895 182.474 23.3693 183.395 23.9062C184.315 24.4347 185.385 24.6989 186.604 24.6989C187.396 24.6989 188.112 24.5881 188.751 24.3665C189.399 24.1364 189.957 23.7955 190.426 23.3438C190.895 22.8835 191.257 22.3125 191.513 21.6307L194.428 22.4489C194.121 23.4375 193.605 24.3068 192.881 25.0568C192.156 25.7983 191.261 26.3778 190.196 26.7955C189.131 27.2045 187.933 27.4091 186.604 27.4091ZM217.938 27H209.858V0.818181H218.295C220.835 0.818181 223.009 1.34233 224.815 2.39062C226.622 3.4304 228.007 4.92614 228.97 6.87784C229.933 8.82102 230.415 11.1477 230.415 13.858C230.415 16.5852 229.929 18.9332 228.957 20.902C227.986 22.8622 226.571 24.3707 224.713 25.4276C222.855 26.4759 220.597 27 217.938 27ZM213.028 24.1875H217.733C219.898 24.1875 221.692 23.7699 223.115 22.9347C224.538 22.0994 225.599 20.9105 226.298 19.3679C226.997 17.8253 227.347 15.9886 227.347 13.858C227.347 11.7443 227.001 9.92472 226.311 8.39915C225.621 6.86506 224.589 5.68892 223.217 4.87074C221.845 4.04403 220.136 3.63068 218.091 3.63068H213.028V24.1875ZM241.102 27.4602C239.858 27.4602 238.729 27.2259 237.714 26.7571C236.7 26.2798 235.895 25.5938 235.298 24.6989C234.702 23.7955 234.403 22.7045 234.403 21.4261C234.403 20.3011 234.625 19.3892 235.068 18.6903C235.511 17.983 236.104 17.429 236.845 17.0284C237.587 16.6278 238.405 16.3295 239.3 16.1335C240.203 15.929 241.111 15.767 242.023 15.6477C243.216 15.4943 244.183 15.3793 244.925 15.3026C245.675 15.2173 246.22 15.0767 246.561 14.8807C246.911 14.6847 247.085 14.3437 247.085 13.858V13.7557C247.085 12.4943 246.74 11.5142 246.05 10.8153C245.368 10.1165 244.332 9.76705 242.943 9.76705C241.503 9.76705 240.374 10.0824 239.555 10.7131C238.737 11.3437 238.162 12.017 237.83 12.733L234.966 11.7102C235.477 10.517 236.159 9.58807 237.011 8.9233C237.872 8.25 238.81 7.78125 239.824 7.51705C240.847 7.24432 241.852 7.10795 242.841 7.10795C243.472 7.10795 244.196 7.18466 245.014 7.33807C245.841 7.48295 246.638 7.78551 247.405 8.24574C248.18 8.70597 248.824 9.40057 249.335 10.3295C249.847 11.2585 250.102 12.5028 250.102 14.0625V27H247.085V24.3409H246.932C246.727 24.767 246.386 25.223 245.909 25.7088C245.432 26.1946 244.797 26.608 244.004 26.9489C243.212 27.2898 242.244 27.4602 241.102 27.4602ZM241.562 24.75C242.756 24.75 243.761 24.5156 244.58 24.0469C245.406 23.5781 246.028 22.973 246.446 22.2315C246.872 21.4901 247.085 20.7102 247.085 19.892V17.1307C246.957 17.2841 246.676 17.4247 246.241 17.5526C245.815 17.6719 245.321 17.7784 244.759 17.8722C244.205 17.9574 243.663 18.0341 243.135 18.1023C242.615 18.1619 242.193 18.2131 241.869 18.2557C241.085 18.358 240.352 18.5241 239.67 18.7543C238.997 18.9759 238.452 19.3125 238.034 19.7642C237.625 20.2074 237.42 20.8125 237.42 21.5795C237.42 22.6278 237.808 23.4205 238.584 23.9574C239.368 24.4858 240.361 24.75 241.562 24.75ZM264.149 7.36364V9.92045H253.973V7.36364H264.149ZM256.939 2.65909H259.956V21.375C259.956 22.2273 260.079 22.8665 260.326 23.2926C260.582 23.7102 260.906 23.9915 261.298 24.1364C261.699 24.2727 262.12 24.3409 262.564 24.3409C262.896 24.3409 263.169 24.3239 263.382 24.2898C263.595 24.2472 263.765 24.2131 263.893 24.1875L264.507 26.8977C264.302 26.9744 264.017 27.0511 263.65 27.1278C263.284 27.2131 262.819 27.2557 262.257 27.2557C261.404 27.2557 260.569 27.0724 259.751 26.706C258.941 26.3395 258.268 25.7812 257.731 25.0312C257.203 24.2812 256.939 23.3352 256.939 22.1932V2.65909ZM274.466 27.4602C273.221 27.4602 272.092 27.2259 271.078 26.7571C270.064 26.2798 269.258 25.5938 268.662 24.6989C268.065 23.7955 267.767 22.7045 267.767 21.4261C267.767 20.3011 267.988 19.3892 268.431 18.6903C268.875 17.983 269.467 17.429 270.208 17.0284C270.95 16.6278 271.768 16.3295 272.663 16.1335C273.566 15.929 274.474 15.767 275.386 15.6477C276.579 15.4943 277.547 15.3793 278.288 15.3026C279.038 15.2173 279.583 15.0767 279.924 14.8807C280.274 14.6847 280.449 14.3437 280.449 13.858V13.7557C280.449 12.4943 280.103 11.5142 279.413 10.8153C278.731 10.1165 277.696 9.76705 276.306 9.76705C274.866 9.76705 273.737 10.0824 272.919 10.7131C272.1 11.3437 271.525 12.017 271.193 12.733L268.329 11.7102C268.841 10.517 269.522 9.58807 270.375 8.9233C271.235 8.25 272.173 7.78125 273.187 7.51705C274.21 7.24432 275.216 7.10795 276.204 7.10795C276.835 7.10795 277.559 7.18466 278.377 7.33807C279.204 7.48295 280.001 7.78551 280.768 8.24574C281.544 8.70597 282.187 9.40057 282.699 10.3295C283.21 11.2585 283.466 12.5028 283.466 14.0625V27H280.449V24.3409H280.295C280.091 24.767 279.75 25.223 279.272 25.7088C278.795 26.1946 278.16 26.608 277.368 26.9489C276.575 27.2898 275.608 27.4602 274.466 27.4602ZM274.926 24.75C276.119 24.75 277.125 24.5156 277.943 24.0469C278.77 23.5781 279.392 22.973 279.809 22.2315C280.235 21.4901 280.449 20.7102 280.449 19.892V17.1307C280.321 17.2841 280.039 17.4247 279.605 17.5526C279.179 17.6719 278.684 17.7784 278.122 17.8722C277.568 17.9574 277.027 18.0341 276.498 18.1023C275.978 18.1619 275.556 18.2131 275.233 18.2557C274.449 18.358 273.716 18.5241 273.034 18.7543C272.36 18.9759 271.815 19.3125 271.397 19.7642C270.988 20.2074 270.784 20.8125 270.784 21.5795C270.784 22.6278 271.172 23.4205 271.947 23.9574C272.731 24.4858 273.724 24.75 274.926 24.75ZM303.7 7.36364C303.546 6.06818 302.924 5.0625 301.833 4.34659C300.742 3.63068 299.404 3.27273 297.819 3.27273C296.66 3.27273 295.646 3.46023 294.776 3.83523C293.915 4.21023 293.242 4.72585 292.756 5.3821C292.279 6.03835 292.04 6.78409 292.04 7.61932C292.04 8.31818 292.207 8.91903 292.539 9.42188C292.88 9.91619 293.315 10.3295 293.843 10.6619C294.371 10.9858 294.925 11.2543 295.505 11.4673C296.085 11.6719 296.617 11.8381 297.103 11.9659L299.762 12.6818C300.444 12.8608 301.202 13.108 302.038 13.4233C302.881 13.7386 303.687 14.169 304.454 14.7145C305.229 15.2514 305.869 15.9418 306.371 16.7855C306.874 17.6293 307.126 18.6648 307.126 19.892C307.126 21.3068 306.755 22.5852 306.013 23.7273C305.281 24.8693 304.207 25.777 302.792 26.4503C301.386 27.1236 299.677 27.4602 297.665 27.4602C295.79 27.4602 294.167 27.1577 292.795 26.5526C291.431 25.9474 290.357 25.1037 289.573 24.0213C288.798 22.9389 288.359 21.6818 288.256 20.25H291.529C291.614 21.2386 291.947 22.0568 292.526 22.7045C293.114 23.3437 293.856 23.821 294.751 24.1364C295.654 24.4432 296.626 24.5966 297.665 24.5966C298.876 24.5966 299.962 24.4006 300.925 24.0085C301.888 23.608 302.651 23.054 303.214 22.3466C303.776 21.6307 304.058 20.7955 304.058 19.8409C304.058 18.9716 303.815 18.2642 303.329 17.7188C302.843 17.1733 302.204 16.7301 301.411 16.3892C300.619 16.0483 299.762 15.75 298.842 15.4943L295.62 14.5739C293.575 13.9858 291.955 13.1463 290.762 12.0554C289.569 10.9645 288.972 9.53693 288.972 7.77273C288.972 6.30682 289.369 5.02841 290.161 3.9375C290.962 2.83807 292.036 1.98579 293.383 1.38068C294.738 0.767045 296.251 0.460226 297.921 0.460226C299.609 0.460226 301.109 0.762783 302.421 1.3679C303.734 1.96449 304.773 2.78267 305.54 3.82244C306.316 4.86221 306.725 6.04261 306.768 7.36364H303.7ZM311.929 34.3636V7.36364H314.844V10.483H315.202C315.424 10.142 315.73 9.70739 316.123 9.17898C316.523 8.64205 317.094 8.16477 317.836 7.74716C318.586 7.32102 319.6 7.10795 320.878 7.10795C322.532 7.10795 323.989 7.52131 325.25 8.34801C326.512 9.17472 327.496 10.3466 328.203 11.8636C328.911 13.3807 329.265 15.1705 329.265 17.233C329.265 19.3125 328.911 21.1151 328.203 22.6406C327.496 24.1577 326.516 25.3338 325.263 26.169C324.01 26.9957 322.566 27.4091 320.929 27.4091C319.668 27.4091 318.658 27.2003 317.9 26.7827C317.141 26.3565 316.557 25.875 316.148 25.3381C315.739 24.7926 315.424 24.3409 315.202 23.983H314.946V34.3636H311.929ZM314.895 17.1818C314.895 18.6648 315.113 19.973 315.547 21.1065C315.982 22.2315 316.617 23.1136 317.452 23.7528C318.287 24.3835 319.31 24.6989 320.52 24.6989C321.782 24.6989 322.834 24.3665 323.678 23.7017C324.53 23.0284 325.169 22.125 325.596 20.9915C326.03 19.8494 326.248 18.5795 326.248 17.1818C326.248 15.8011 326.034 14.5568 325.608 13.4489C325.191 12.3324 324.556 11.4503 323.703 10.8026C322.86 10.1463 321.799 9.81818 320.52 9.81818C319.293 9.81818 318.262 10.1293 317.426 10.7514C316.591 11.3651 315.961 12.2259 315.534 13.3338C315.108 14.4332 314.895 15.7159 314.895 17.1818ZM339.645 27.4602C338.401 27.4602 337.272 27.2259 336.257 26.7571C335.243 26.2798 334.438 25.5938 333.841 24.6989C333.245 23.7955 332.946 22.7045 332.946 21.4261C332.946 20.3011 333.168 19.3892 333.611 18.6903C334.054 17.983 334.647 17.429 335.388 17.0284C336.13 16.6278 336.948 16.3295 337.843 16.1335C338.746 15.929 339.654 15.767 340.566 15.6477C341.759 15.4943 342.726 15.3793 343.468 15.3026C344.218 15.2173 344.763 15.0767 345.104 14.8807C345.453 14.6847 345.628 14.3437 345.628 13.858V13.7557C345.628 12.4943 345.283 11.5142 344.593 10.8153C343.911 10.1165 342.875 9.76705 341.486 9.76705C340.046 9.76705 338.917 10.0824 338.098 10.7131C337.28 11.3437 336.705 12.017 336.373 12.733L333.509 11.7102C334.02 10.517 334.702 9.58807 335.554 8.9233C336.415 8.25 337.353 7.78125 338.367 7.51705C339.39 7.24432 340.395 7.10795 341.384 7.10795C342.015 7.10795 342.739 7.18466 343.557 7.33807C344.384 7.48295 345.181 7.78551 345.948 8.24574C346.723 8.70597 347.367 9.40057 347.878 10.3295C348.39 11.2585 348.645 12.5028 348.645 14.0625V27H345.628V24.3409H345.475C345.27 24.767 344.929 25.223 344.452 25.7088C343.975 26.1946 343.34 26.608 342.547 26.9489C341.755 27.2898 340.787 27.4602 339.645 27.4602ZM340.105 24.75C341.299 24.75 342.304 24.5156 343.123 24.0469C343.949 23.5781 344.571 22.973 344.989 22.2315C345.415 21.4901 345.628 20.7102 345.628 19.892V17.1307C345.5 17.2841 345.219 17.4247 344.784 17.5526C344.358 17.6719 343.864 17.7784 343.301 17.8722C342.748 17.9574 342.206 18.0341 341.678 18.1023C341.158 18.1619 340.736 18.2131 340.412 18.2557C339.628 18.358 338.895 18.5241 338.213 18.7543C337.54 18.9759 336.995 19.3125 336.577 19.7642C336.168 20.2074 335.963 20.8125 335.963 21.5795C335.963 22.6278 336.351 23.4205 337.127 23.9574C337.911 24.4858 338.904 24.75 340.105 24.75ZM362.129 27.4091C360.288 27.4091 358.703 26.9744 357.374 26.1051C356.044 25.2358 355.021 24.0384 354.305 22.5128C353.589 20.9872 353.232 19.2443 353.232 17.2841C353.232 15.2898 353.598 13.5298 354.331 12.0043C355.072 10.4702 356.104 9.27273 357.425 8.41193C358.754 7.54261 360.305 7.10795 362.078 7.10795C363.459 7.10795 364.703 7.36364 365.811 7.875C366.919 8.38636 367.827 9.10227 368.534 10.0227C369.241 10.9432 369.68 12.017 369.851 13.2443H366.834C366.604 12.3494 366.092 11.5568 365.3 10.8665C364.516 10.1676 363.459 9.81818 362.129 9.81818C360.953 9.81818 359.922 10.125 359.036 10.7386C358.158 11.3437 357.472 12.2003 356.977 13.3082C356.491 14.4077 356.249 15.6989 356.249 17.1818C356.249 18.6989 356.487 20.0199 356.964 21.1449C357.45 22.2699 358.132 23.1435 359.01 23.7656C359.896 24.3878 360.936 24.6989 362.129 24.6989C362.913 24.6989 363.625 24.5625 364.264 24.2898C364.903 24.017 365.445 23.625 365.888 23.1136C366.331 22.6023 366.646 21.9886 366.834 21.2727H369.851C369.68 22.4318 369.259 23.4759 368.585 24.4048C367.92 25.3253 367.038 26.0582 365.939 26.6037C364.848 27.1406 363.578 27.4091 362.129 27.4091ZM382.494 27.4091C380.602 27.4091 378.97 26.9915 377.598 26.1562C376.234 25.3125 375.182 24.1364 374.44 22.6278C373.707 21.1108 373.341 19.3466 373.341 17.3352C373.341 15.3239 373.707 13.5511 374.44 12.017C375.182 10.4744 376.213 9.27273 377.534 8.41193C378.864 7.54261 380.415 7.10795 382.188 7.10795C383.21 7.10795 384.22 7.27841 385.217 7.61932C386.214 7.96023 387.122 8.5142 387.94 9.28125C388.759 10.0398 389.411 11.0455 389.896 12.2983C390.382 13.5511 390.625 15.0937 390.625 16.9261V18.2045H375.489V15.5966H387.557C387.557 14.4886 387.335 13.5 386.892 12.6307C386.457 11.7614 385.835 11.0753 385.026 10.5724C384.224 10.0696 383.278 9.81818 382.188 9.81818C380.986 9.81818 379.946 10.1165 379.068 10.7131C378.199 11.3011 377.53 12.0682 377.061 13.0142C376.592 13.9602 376.358 14.9744 376.358 16.0568V17.7955C376.358 19.2784 376.614 20.5355 377.125 21.5668C377.645 22.5895 378.365 23.3693 379.286 23.9062C380.206 24.4347 381.276 24.6989 382.494 24.6989C383.287 24.6989 384.003 24.5881 384.642 24.3665C385.29 24.1364 385.848 23.7955 386.317 23.3438C386.786 22.8835 387.148 22.3125 387.403 21.6307L390.318 22.4489C390.011 23.4375 389.496 24.3068 388.771 25.0568C388.047 25.7983 387.152 26.3778 386.087 26.7955C385.021 27.2045 383.824 27.4091 382.494 27.4091Z" fill="#444444" fill-opacity="0.7"/>
</svg>
