<svg width="422" height="318" viewBox="0 0 422 318" fill="none" xmlns="http://www.w3.org/2000/svg">
<g clip-path="url(#clip0_9_5083)">
<path d="M344.678 199.432H72.8852C71.0299 199.43 69.2511 198.637 67.9392 197.227C66.6273 195.817 65.8893 193.906 65.8872 191.912V11.8024C65.8887 10.3416 66.4293 8.94115 67.3905 7.90822C68.3516 6.87528 69.6547 6.29424 71.0139 6.29256H346.461C347.843 6.29425 349.169 6.88533 350.147 7.93612C351.124 8.98692 351.674 10.4116 351.676 11.8976V191.912C351.674 193.906 350.936 195.817 349.624 197.227C348.312 198.637 346.533 199.43 344.678 199.432Z" fill="#F2F2F2"/>
<path d="M334.763 188.782H81.4593C77.7462 188.782 74.7253 185.742 74.7253 182.005V25.1635C74.7253 22.3922 76.9638 20.1375 79.7154 20.1375H336.424C339.222 20.1375 341.497 22.4294 341.497 25.2463V182.005C341.497 185.742 338.476 188.782 334.763 188.782Z" fill="white"/>
<path d="M351.579 11.3722H65.7891V7.54333C65.7918 5.54279 66.5327 3.62509 67.8494 2.21093C69.1661 0.796775 70.951 0.00165278 72.8125 0H344.555C346.417 0.00164315 348.202 0.796762 349.518 2.21092C350.835 3.62508 351.576 5.54279 351.579 7.54333V11.3722Z" fill="#CCCCCC"/>
<path d="M78.553 7.64982C79.5563 7.64982 80.3697 6.77571 80.3697 5.69745C80.3697 4.61919 79.5563 3.74509 78.553 3.74509C77.5497 3.74509 76.7363 4.61919 76.7363 5.69745C76.7363 6.77571 77.5497 7.64982 78.553 7.64982Z" fill="white"/>
<path d="M85.4488 7.64982C86.4521 7.64982 87.2655 6.77571 87.2655 5.69745C87.2655 4.61919 86.4521 3.74509 85.4488 3.74509C84.4454 3.74509 83.6321 4.61919 83.6321 5.69745C83.6321 6.77571 84.4454 7.64982 85.4488 7.64982Z" fill="white"/>
<path d="M92.3445 7.64982C93.3478 7.64982 94.1612 6.77571 94.1612 5.69745C94.1612 4.61919 93.3478 3.74509 92.3445 3.74509C91.3412 3.74509 90.5278 4.61919 90.5278 5.69745C90.5278 6.77571 91.3412 7.64982 92.3445 7.64982Z" fill="white"/>
<path d="M306.882 162.477H110.583C108.615 162.475 106.728 161.634 105.337 160.138C103.946 158.643 103.163 156.615 103.161 154.501V52.7881C103.162 51.2065 103.748 49.6902 104.788 48.5718C105.829 47.4534 107.24 46.8243 108.712 46.8225H308.665C310.16 46.8243 311.593 47.4635 312.651 48.5997C313.708 49.7359 314.303 51.2765 314.304 52.8834V154.501C314.302 156.615 313.519 158.643 312.128 160.138C310.736 161.634 308.85 162.475 306.882 162.477ZM108.712 47.7341C107.465 47.7356 106.269 48.2686 105.388 49.2161C104.506 50.1636 104.01 51.4482 104.009 52.7881V154.501C104.011 156.374 104.704 158.169 105.936 159.494C107.169 160.818 108.84 161.563 110.583 161.565H306.882C308.625 161.563 310.296 160.818 311.528 159.494C312.761 158.169 313.454 156.374 313.456 154.501V52.8834C313.455 51.5182 312.949 50.2093 312.051 49.244C311.153 48.2786 309.935 47.7356 308.665 47.7341H108.712Z" fill="#CCCCCC"/>
<path d="M117.369 154.501H300.096C301.896 154.501 303.622 153.732 304.895 152.365C306.167 150.997 306.882 149.142 306.882 147.208V62.1802C306.882 60.2461 306.167 58.3911 304.895 57.0235C303.622 55.6558 301.896 54.8875 300.096 54.8875H117.369C115.569 54.8875 113.843 55.6558 112.57 57.0235C111.298 58.3911 110.583 60.2461 110.583 62.1802V147.208C110.583 149.142 111.298 150.997 112.57 152.365C113.843 153.732 115.569 154.501 117.369 154.501Z" fill="#F2F2F2"/>
<path d="M138.116 79.6253C140.225 79.6253 141.933 77.7887 141.933 75.5232C141.933 73.2576 140.225 71.421 138.116 71.421C136.008 71.421 134.299 73.2576 134.299 75.5232C134.299 77.7887 136.008 79.6253 138.116 79.6253Z" fill="#CCCCCC"/>
<path d="M138.116 95.1224C140.225 95.1224 141.933 93.2858 141.933 91.0202C141.933 88.7546 140.225 86.918 138.116 86.918C136.008 86.918 134.299 88.7546 134.299 91.0202C134.299 93.2858 136.008 95.1224 138.116 95.1224Z" fill="#CCCCCC"/>
<path d="M138.116 110.619C140.225 110.619 141.933 108.783 141.933 106.517C141.933 104.252 140.225 102.415 138.116 102.415C136.008 102.415 134.299 104.252 134.299 106.517C134.299 108.783 136.008 110.619 138.116 110.619Z" fill="#CCCCCC"/>
<path d="M138.116 126.116C140.225 126.116 141.933 124.28 141.933 122.014C141.933 119.749 140.225 117.912 138.116 117.912C136.008 117.912 134.299 119.749 134.299 122.014C134.299 124.28 136.008 126.116 138.116 126.116Z" fill="#CCCCCC"/>
<path d="M282.741 75.9789H157.202C157.089 75.9789 156.981 75.9309 156.902 75.8455C156.822 75.76 156.778 75.644 156.778 75.5231C156.778 75.4023 156.822 75.2863 156.902 75.2009C156.981 75.1154 157.089 75.0674 157.202 75.0674H282.741C282.854 75.0674 282.962 75.1154 283.041 75.2009C283.121 75.2863 283.166 75.4023 283.166 75.5231C283.166 75.644 283.121 75.76 283.041 75.8455C282.962 75.9309 282.854 75.9789 282.741 75.9789Z" fill="#CCCCCC"/>
<path d="M282.741 91.476H157.202C157.089 91.476 156.981 91.428 156.902 91.3425C156.822 91.257 156.778 91.1411 156.778 91.0202C156.778 90.8993 156.822 90.7834 156.902 90.6979C156.981 90.6124 157.089 90.5644 157.202 90.5644H282.741C282.854 90.5644 282.962 90.6124 283.041 90.6979C283.121 90.7834 283.166 90.8993 283.166 91.0202C283.166 91.1411 283.121 91.257 283.041 91.3425C282.962 91.428 282.854 91.476 282.741 91.476Z" fill="#CCCCCC"/>
<path d="M282.741 106.973H157.202C157.089 106.973 156.981 106.925 156.902 106.84C156.822 106.754 156.778 106.638 156.778 106.517C156.778 106.396 156.822 106.28 156.902 106.195C156.981 106.109 157.089 106.061 157.202 106.061H282.741C282.854 106.061 282.962 106.109 283.041 106.195C283.121 106.28 283.166 106.396 283.166 106.517C283.166 106.638 283.121 106.754 283.041 106.84C282.962 106.925 282.854 106.973 282.741 106.973Z" fill="#CCCCCC"/>
<path d="M282.741 122.47H157.202C157.089 122.47 156.981 122.422 156.902 122.337C156.822 122.251 156.778 122.135 156.778 122.014C156.778 121.893 156.822 121.778 156.902 121.692C156.981 121.607 157.089 121.559 157.202 121.559H282.741C282.854 121.559 282.962 121.607 283.041 121.692C283.121 121.778 283.166 121.893 283.166 122.014C283.166 122.135 283.121 122.251 283.041 122.337C282.962 122.422 282.854 122.47 282.741 122.47Z" fill="#CCCCCC"/>
<path d="M180.953 137.967H168.653C168.091 137.966 167.552 137.726 167.154 137.299C166.757 136.872 166.533 136.292 166.532 135.688V123.382C166.533 122.777 166.757 122.198 167.154 121.771C167.552 121.344 168.091 121.103 168.653 121.103H180.953C181.515 121.103 182.054 121.344 182.451 121.771C182.849 122.198 183.073 122.777 183.073 123.382V135.688C183.073 136.292 182.849 136.872 182.451 137.299C182.054 137.726 181.515 137.966 180.953 137.967Z" fill="#E6A486"/>
<path d="M208.52 137.967H196.221C195.659 137.966 195.12 137.726 194.722 137.299C194.325 136.872 194.101 136.292 194.1 135.688V107.885C194.101 107.28 194.325 106.701 194.722 106.274C195.12 105.847 195.659 105.606 196.221 105.606H208.52C209.083 105.606 209.622 105.847 210.019 106.274C210.417 106.701 210.64 107.28 210.641 107.885V135.688C210.64 136.292 210.417 136.872 210.019 137.299C209.622 137.726 209.083 137.966 208.52 137.967Z" fill="#E6A486"/>
<path d="M236.512 137.967H224.213C223.651 137.966 223.112 137.726 222.714 137.299C222.317 136.872 222.093 136.292 222.092 135.688V92.3876C222.093 91.7834 222.317 91.2041 222.714 90.7769C223.112 90.3496 223.651 90.1093 224.213 90.1086H236.512C237.075 90.1093 237.614 90.3496 238.011 90.7769C238.409 91.2041 238.632 91.7834 238.633 92.3876V135.688C238.632 136.292 238.409 136.872 238.011 137.299C237.614 137.726 237.075 137.966 236.512 137.967Z" fill="#E6A486"/>
<path d="M265.352 137.967H253.053C252.491 137.966 251.952 137.726 251.554 137.299C251.157 136.872 250.933 136.292 250.932 135.688V77.3463C250.933 76.7421 251.157 76.1629 251.554 75.7356C251.952 75.3084 252.491 75.068 253.053 75.0674H265.352C265.915 75.068 266.454 75.3084 266.851 75.7356C267.249 76.1629 267.472 76.7421 267.473 77.3463V135.688C267.472 136.292 267.249 136.872 266.851 137.299C266.454 137.726 265.915 137.966 265.352 137.967Z" fill="#E6A486"/>
<path d="M282.741 137.967H157.202C157.089 137.967 156.981 137.919 156.902 137.834C156.822 137.748 156.778 137.632 156.778 137.511C156.778 137.39 156.822 137.275 156.902 137.189C156.981 137.104 157.089 137.056 157.202 137.056H282.741C282.854 137.056 282.962 137.104 283.041 137.189C283.121 137.275 283.166 137.39 283.166 137.511C283.166 137.632 283.121 137.748 283.041 137.834C282.962 137.919 282.854 137.967 282.741 137.967Z" fill="#3F3D56"/>
<path d="M337.898 222.995C338.241 222.436 338.695 221.964 339.226 221.614C339.758 221.264 340.354 221.043 340.974 220.967C341.593 220.891 342.221 220.963 342.812 221.176C343.403 221.389 343.943 221.738 344.395 222.2L357.863 214.73L357.026 223.146L344.365 228.95C343.592 229.714 342.586 230.147 341.537 230.167C340.487 230.187 339.467 229.793 338.67 229.059C337.873 228.325 337.354 227.302 337.212 226.185C337.069 225.067 337.313 223.932 337.898 222.995Z" fill="#FFB8B8"/>
<path d="M349.486 226.134C349.18 225.876 348.955 225.524 348.84 225.126L347.768 221.407C347.653 221.004 347.656 220.572 347.776 220.171C347.897 219.77 348.129 219.418 348.441 219.163L359.357 210.303L371.18 186.732C371.675 186.047 372.291 185.473 372.992 185.044C373.694 184.614 374.467 184.337 375.268 184.229C376.07 184.12 376.883 184.183 377.661 184.412C378.44 184.641 379.169 185.033 379.807 185.566C380.445 186.098 380.979 186.76 381.378 187.514C381.778 188.268 382.036 189.099 382.136 189.96C382.237 190.821 382.179 191.695 381.966 192.531C381.752 193.368 381.387 194.152 380.892 194.837L374.166 210.093C372.125 214.723 368.589 218.4 364.215 220.438L351.422 226.401C351.176 226.515 350.911 226.573 350.642 226.57C350.374 226.567 350.11 226.503 349.866 226.383C349.731 226.316 349.603 226.232 349.486 226.134Z" fill="#3F3D56"/>
<path d="M381.189 176.895C386.942 176.895 391.606 171.883 391.606 165.7C391.606 159.518 386.942 154.506 381.189 154.506C375.436 154.506 370.772 159.518 370.772 165.7C370.772 171.883 375.436 176.895 381.189 176.895Z" fill="#FFB8B8"/>
<path d="M376.963 312.556L371.764 312.556L369.291 291.002L376.965 291.002L376.963 312.556Z" fill="#FFB8B8"/>
<path d="M368.05 310.959H378.078V317.744H361.736C361.736 316.853 361.899 315.971 362.217 315.147C362.534 314.324 362.999 313.576 363.585 312.946C364.172 312.316 364.868 311.816 365.634 311.475C366.4 311.134 367.221 310.959 368.05 310.959Z" fill="#2F2E41"/>
<path d="M393.928 312.557L388.729 312.556L386.256 291.002L393.93 291.003L393.928 312.557Z" fill="#FFB8B8"/>
<path d="M385.015 310.96H395.043V317.745H378.701C378.701 316.854 378.864 315.972 379.182 315.148C379.499 314.325 379.964 313.577 380.55 312.947C381.136 312.317 381.833 311.817 382.599 311.476C383.365 311.135 384.186 310.96 385.015 310.96Z" fill="#2F2E41"/>
<path d="M394.308 307.088L388.215 307.087C387.795 307.087 387.388 306.938 387.055 306.663C386.722 306.389 386.482 306.005 386.372 305.57L377.602 270.61C377.588 270.555 377.556 270.508 377.512 270.478C377.468 270.447 377.415 270.435 377.363 270.444C377.311 270.453 377.264 270.483 377.231 270.527C377.199 270.571 377.182 270.626 377.185 270.683L378.957 303.838C378.973 304.132 378.93 304.425 378.831 304.699C378.732 304.972 378.579 305.22 378.384 305.425C378.188 305.63 377.954 305.787 377.696 305.886C377.439 305.986 377.165 306.024 376.893 306L370.044 305.386C369.606 305.346 369.193 305.144 368.877 304.815C368.56 304.486 368.359 304.049 368.307 303.579L362.068 233.959L364.482 235.515L387.1 231.389L396.2 304.765C396.236 305.055 396.214 305.35 396.135 305.629C396.057 305.909 395.923 306.168 395.744 306.388C395.565 306.607 395.344 306.784 395.097 306.904C394.849 307.025 394.58 307.088 394.308 307.088Z" fill="#2F2E41"/>
<path d="M369.633 241.307C367.137 241.286 364.693 240.546 362.553 239.166C362.224 238.956 361.961 238.644 361.799 238.271C361.637 237.897 361.584 237.48 361.647 237.074C362.443 231.839 366.603 204.983 370.388 190.342C371.929 184.379 375.338 181.167 380.518 180.796C388.097 180.262 394.833 186.633 395.534 195.017C396.771 209.806 391.745 230.82 389.527 239.168C389.441 239.49 389.282 239.785 389.066 240.026C388.849 240.267 388.58 240.448 388.284 240.552C387.987 240.655 387.671 240.679 387.364 240.621C387.056 240.563 386.767 240.425 386.521 240.219L381.999 236.439C381.721 236.21 381.377 236.094 381.027 236.109C380.677 236.125 380.343 236.272 380.084 236.524C376.272 240.178 372.652 241.307 369.633 241.307Z" fill="#3F3D56"/>
<path opacity="0.2" d="M384.587 202.254L388.404 219.575L382.889 234.16L386.707 220.03L384.587 202.254Z" fill="black"/>
<path d="M387.133 174.906C388.06 174.925 388.981 174.746 389.842 174.38C390.222 174.223 390.615 174.094 390.994 173.937C394.337 172.549 396.539 168.723 396.618 164.873C396.697 161.022 394.842 157.285 392.087 154.822C389.332 152.359 385.763 151.095 382.19 150.802C378.341 150.487 374.007 151.536 371.856 154.98C371.284 155.897 370.883 157.01 371.222 158.117C371.324 158.451 371.505 158.751 371.748 158.986C372.709 159.904 373.667 159.214 374.646 159.153C375.992 159.069 377.2 160.24 377.635 161.611C378.069 162.983 377.878 164.493 377.527 165.891C377.26 166.733 377.091 167.607 377.025 168.494C376.997 168.939 377.075 169.384 377.251 169.787C377.428 170.19 377.697 170.538 378.034 170.798C378.875 171.344 379.979 171.028 380.821 170.483C381.662 169.937 382.39 169.179 383.298 168.778C384.207 168.376 385.429 168.466 385.958 169.356C386.126 169.679 386.24 170.033 386.294 170.399C386.768 172.721 386.659 172.584 387.133 174.906Z" fill="#2F2E41"/>
<path d="M370.987 296.92L305.759 272.507C304.64 272.087 303.722 271.206 303.206 270.059C302.69 268.912 302.618 267.591 303.007 266.388L319.957 214.081C320.244 213.2 320.844 212.477 321.626 212.071C322.408 211.664 323.308 211.608 324.128 211.914L391.562 237.152C392.396 237.465 393.08 238.122 393.465 238.977C393.849 239.832 393.903 240.816 393.613 241.713L376.681 293.962C376.29 295.165 375.471 296.152 374.403 296.706C373.336 297.261 372.107 297.337 370.987 296.92Z" fill="#E6E6E6"/>
<path d="M311.325 269.501L368.363 290.848C369.449 291.255 370.641 291.181 371.676 290.643C372.712 290.105 373.506 289.147 373.884 287.98L387.572 245.743C387.95 244.576 387.881 243.295 387.381 242.182C386.88 241.069 385.989 240.215 384.902 239.809L327.865 218.462C326.779 218.055 325.587 218.129 324.551 218.667C323.516 219.205 322.722 220.163 322.343 221.33L308.656 263.567C308.469 264.145 308.389 264.757 308.422 265.368C308.455 265.979 308.599 266.577 308.847 267.128C309.095 267.679 309.442 268.172 309.867 268.579C310.292 268.987 310.788 269.3 311.325 269.501Z" fill="white"/>
<path d="M325.648 239.826L322.824 238.768C322.67 238.711 322.545 238.591 322.474 238.434C322.404 238.277 322.394 238.096 322.447 237.931L323.431 234.896C323.484 234.731 323.596 234.596 323.742 234.52C323.888 234.444 324.056 234.434 324.21 234.491L327.034 235.548C327.188 235.606 327.313 235.726 327.384 235.883C327.454 236.04 327.464 236.221 327.411 236.385L326.427 239.421C326.374 239.586 326.262 239.721 326.116 239.796C325.97 239.872 325.802 239.883 325.648 239.826Z" fill="#E6A486"/>
<path d="M323.099 247.691L320.275 246.634C320.122 246.576 319.996 246.456 319.925 246.299C319.855 246.142 319.845 245.961 319.898 245.797L320.882 242.761C320.935 242.596 321.047 242.461 321.194 242.385C321.34 242.31 321.508 242.299 321.661 242.356L324.486 243.413C324.639 243.471 324.764 243.591 324.835 243.748C324.906 243.905 324.915 244.086 324.862 244.251L323.878 247.286C323.825 247.451 323.713 247.586 323.567 247.662C323.421 247.738 323.253 247.748 323.099 247.691Z" fill="#3F3D56"/>
<path d="M320.551 255.556L317.726 254.499C317.573 254.442 317.447 254.321 317.376 254.164C317.306 254.007 317.296 253.827 317.349 253.662L318.333 250.626C318.387 250.462 318.499 250.327 318.645 250.251C318.791 250.175 318.959 250.164 319.112 250.221L321.937 251.279C322.09 251.336 322.216 251.457 322.286 251.614C322.357 251.771 322.367 251.951 322.313 252.116L321.33 255.152C321.276 255.316 321.164 255.451 321.018 255.527C320.872 255.603 320.704 255.613 320.551 255.556Z" fill="#CCCCCC"/>
<path d="M344.63 245.228L331.019 240.134C330.943 240.106 330.873 240.062 330.813 240.004C330.753 239.947 330.704 239.877 330.669 239.799C330.633 239.722 330.613 239.637 330.608 239.551C330.604 239.464 330.615 239.378 330.641 239.296C330.668 239.215 330.709 239.139 330.762 239.075C330.816 239.01 330.881 238.958 330.953 238.92C331.026 238.883 331.105 238.861 331.185 238.856C331.265 238.851 331.346 238.863 331.422 238.892L345.032 243.986C345.108 244.014 345.178 244.058 345.238 244.116C345.299 244.173 345.348 244.243 345.383 244.321C345.418 244.398 345.438 244.483 345.443 244.569C345.448 244.656 345.437 244.742 345.41 244.824C345.384 244.905 345.342 244.981 345.289 245.045C345.235 245.11 345.17 245.162 345.098 245.2C345.025 245.237 344.947 245.259 344.866 245.264C344.786 245.269 344.705 245.256 344.63 245.228Z" fill="#CCCCCC"/>
<path d="M342.081 253.093L328.47 247.999C328.317 247.942 328.191 247.821 328.121 247.664C328.05 247.507 328.04 247.327 328.094 247.162C328.147 246.997 328.259 246.862 328.405 246.786C328.551 246.71 328.72 246.7 328.873 246.757L342.483 251.851C342.559 251.879 342.629 251.924 342.689 251.981C342.75 252.038 342.799 252.108 342.834 252.186C342.869 252.264 342.889 252.348 342.894 252.434C342.899 252.521 342.887 252.607 342.861 252.689C342.834 252.771 342.793 252.846 342.74 252.91C342.686 252.975 342.621 253.027 342.549 253.065C342.476 253.102 342.398 253.124 342.317 253.129C342.237 253.134 342.157 253.122 342.081 253.093Z" fill="#CCCCCC"/>
<path d="M339.532 260.958L325.922 255.865C325.768 255.807 325.643 255.687 325.572 255.53C325.501 255.373 325.492 255.192 325.545 255.027C325.598 254.863 325.71 254.727 325.857 254.652C326.003 254.576 326.171 254.565 326.324 254.623L339.934 259.717C340.087 259.774 340.213 259.894 340.284 260.051C340.354 260.208 340.364 260.389 340.311 260.554C340.257 260.718 340.145 260.854 339.999 260.929C339.853 261.005 339.685 261.016 339.532 260.958Z" fill="#CCCCCC"/>
<path d="M375.751 265.22C375.85 264.964 375.944 264.704 376.03 264.439C377.148 260.987 376.945 257.199 375.465 253.908C373.984 250.617 371.348 248.093 368.136 246.891L363.663 260.695L375.751 265.22Z" fill="#E6A486"/>
<path d="M362.362 261.535L366.835 247.731C364.471 246.846 361.918 246.724 359.49 247.38C357.062 248.036 354.866 249.441 353.172 251.422C351.479 253.403 350.362 255.874 349.959 258.53C349.556 261.185 349.886 263.909 350.906 266.365C351.927 268.822 353.594 270.904 355.703 272.354C357.811 273.805 360.269 274.56 362.772 274.528C365.275 274.495 367.715 273.676 369.79 272.171C371.865 270.667 373.485 268.542 374.45 266.06L362.362 261.535Z" fill="#3F3D56"/>
<path d="M378.377 241.733C378.327 241.065 378.413 240.393 378.63 239.765C378.847 239.137 379.189 238.567 379.633 238.097C380.077 237.626 380.612 237.266 381.199 237.042C381.787 236.817 382.413 236.734 383.034 236.798L389.342 221.988L393.515 229.166L386.885 242.129C386.717 243.243 386.174 244.251 385.359 244.963C384.545 245.675 383.516 246.041 382.467 245.992C381.419 245.943 380.423 245.483 379.669 244.698C378.915 243.912 378.456 242.858 378.377 241.733Z" fill="#FFB8B8"/>
<path d="M389.298 236.517C388.909 236.517 388.53 236.39 388.211 236.152L385.232 233.936C384.91 233.696 384.665 233.354 384.529 232.959C384.393 232.563 384.374 232.133 384.474 231.725L387.975 217.513L383.743 191.126C383.738 190.257 383.892 189.397 384.197 188.592C384.502 187.788 384.951 187.057 385.52 186.439C386.088 185.822 386.764 185.331 387.509 184.994C388.254 184.658 389.053 184.483 389.861 184.479C390.669 184.474 391.47 184.641 392.218 184.97C392.966 185.299 393.646 185.783 394.22 186.394C394.794 187.005 395.249 187.732 395.562 188.533C395.874 189.334 396.036 190.193 396.039 191.062L399.507 207.527C400.56 212.524 399.889 217.762 397.617 222.267L390.975 235.443C390.847 235.696 390.671 235.918 390.459 236.093C390.246 236.268 390.001 236.394 389.74 236.461C389.595 236.498 389.447 236.517 389.298 236.517Z" fill="#3F3D56"/>
<path d="M421.576 318H340.993C340.88 318 340.773 317.952 340.693 317.866C340.614 317.781 340.569 317.665 340.569 317.544C340.569 317.423 340.614 317.307 340.693 317.222C340.773 317.136 340.88 317.088 340.993 317.088H421.576C421.688 317.088 421.796 317.136 421.876 317.222C421.955 317.307 422 317.423 422 317.544C422 317.665 421.955 317.781 421.876 317.866C421.796 317.952 421.688 318 421.576 318Z" fill="#CCCCCC"/>
<path d="M208.048 312.329L213.248 312.329L215.722 290.775H208.048L208.048 312.329Z" fill="#A0616A"/>
<path d="M206.722 310.505L216.962 310.504C217.819 310.504 218.668 310.686 219.46 311.038C220.252 311.39 220.971 311.907 221.577 312.558C222.183 313.209 222.664 313.983 222.992 314.833C223.32 315.684 223.488 316.596 223.488 317.517V317.745L206.723 317.746L206.722 310.505Z" fill="#2F2E41"/>
<path d="M187.267 312.329L192.466 312.329L194.94 290.775H187.266L187.267 312.329Z" fill="#A0616A"/>
<path d="M185.94 310.505L196.18 310.504C197.037 310.504 197.886 310.686 198.678 311.038C199.47 311.39 200.189 311.907 200.795 312.558C201.401 313.209 201.882 313.983 202.21 314.833C202.538 315.684 202.706 316.596 202.706 317.517V317.745L185.941 317.746L185.94 310.505Z" fill="#2F2E41"/>
<path d="M209.087 163.11C214.84 163.11 219.503 158.098 219.503 151.915C219.503 145.733 214.84 140.721 209.087 140.721C203.333 140.721 198.67 145.733 198.67 151.915C198.67 158.098 203.333 163.11 209.087 163.11Z" fill="#A0616A"/>
<path d="M216.091 307.677H206.442C206.19 307.677 205.94 307.623 205.707 307.518C205.474 307.414 205.262 307.261 205.085 307.067C204.907 306.874 204.767 306.645 204.673 306.394C204.578 306.142 204.531 305.872 204.534 305.601L205.095 256.361C205.097 256.186 205.036 256.017 204.926 255.888C204.815 255.76 204.663 255.682 204.501 255.67C204.339 255.658 204.178 255.714 204.053 255.826C203.928 255.937 203.847 256.096 203.827 256.27L198.211 305.874C198.155 306.371 197.931 306.829 197.582 307.161C197.233 307.493 196.783 307.677 196.317 307.677H186.575C186.312 307.677 186.052 307.619 185.81 307.505C185.569 307.392 185.353 307.226 185.174 307.019C184.995 306.811 184.858 306.566 184.772 306.299C184.686 306.032 184.652 305.748 184.672 305.466L191.105 217.008L191.28 216.987L222.083 213.412L217.998 305.723C217.975 306.25 217.764 306.747 217.409 307.111C217.054 307.475 216.582 307.678 216.091 307.677Z" fill="#2F2E41"/>
<path d="M191.48 222.438C190.985 222.437 190.51 222.229 190.155 221.858C189.801 221.487 189.594 220.983 189.578 220.451C189.41 214.858 189.122 195.505 192.472 181.296C193.386 177.415 195.438 173.952 198.325 171.421C201.211 168.89 204.779 167.424 208.5 167.24C212.164 167.025 215.797 168.055 218.884 170.184C221.972 172.313 224.357 175.433 225.702 179.101C231.333 194.463 236.652 213.398 230.02 216.368C221.328 220.26 198.413 221.995 191.597 222.434C191.558 222.437 191.519 222.438 191.48 222.438Z" fill="#3F3D56"/>
<path d="M231.293 140.601C231.457 140.781 231.633 140.948 231.821 141.099L230.728 163.673L226.179 166.175L228.797 174.046L237.249 170.456C237.932 170.167 238.509 169.646 238.893 168.974C239.278 168.302 239.449 167.514 239.381 166.728L237.166 141.121C237.891 140.54 238.434 139.736 238.723 138.815C239.012 137.895 239.033 136.901 238.784 135.967C238.534 135.034 238.026 134.203 237.327 133.587C236.628 132.971 235.771 132.598 234.87 132.518C233.969 132.438 233.067 132.655 232.283 133.14C231.5 133.625 230.872 134.354 230.484 135.232C230.095 136.109 229.965 137.093 230.109 138.052C230.254 139.011 230.667 139.9 231.293 140.601Z" fill="#A0616A"/>
<path d="M230.814 164.513L234.014 174.285C234.105 174.563 234.139 174.859 234.114 175.152C234.089 175.446 234.005 175.73 233.869 175.986C233.733 176.241 233.547 176.462 233.323 176.634C233.1 176.805 232.846 176.923 232.576 176.979L223.142 178.943C221.815 179.435 220.361 179.343 219.098 178.685C217.836 178.027 216.867 176.858 216.405 175.434C215.943 174.01 216.025 172.447 216.634 171.088C217.243 169.729 218.328 168.685 219.652 168.185L228.123 163.38C228.366 163.242 228.633 163.162 228.907 163.146C229.181 163.129 229.455 163.177 229.71 163.284C229.965 163.392 230.196 163.557 230.387 163.769C230.577 163.981 230.723 164.235 230.814 164.513Z" fill="#3F3D56"/>
<path d="M186.172 140.601C186.008 140.781 185.832 140.948 185.644 141.099L186.737 163.673L191.285 166.175L188.668 174.046L180.216 170.456C179.533 170.167 178.956 169.646 178.572 168.974C178.187 168.302 178.016 167.514 178.084 166.728L180.299 141.121C179.574 140.54 179.031 139.736 178.742 138.815C178.453 137.895 178.432 136.901 178.681 135.967C178.931 135.034 179.439 134.203 180.138 133.587C180.837 132.971 181.694 132.598 182.595 132.518C183.496 132.438 184.398 132.655 185.182 133.14C185.965 133.625 186.593 134.354 186.981 135.232C187.37 136.109 187.5 137.093 187.356 138.052C187.211 139.011 186.798 139.9 186.172 140.601Z" fill="#A0616A"/>
<path d="M187.755 163.284C188.01 163.176 188.284 163.129 188.558 163.146C188.832 163.162 189.099 163.242 189.342 163.38L197.813 168.185C199.137 168.685 200.222 169.729 200.831 171.088C201.439 172.447 201.522 174.01 201.06 175.434C200.598 176.858 199.629 178.027 198.367 178.685C197.104 179.343 195.65 179.435 194.323 178.943L184.889 176.979C184.619 176.923 184.364 176.805 184.141 176.634C183.918 176.462 183.732 176.241 183.596 175.986C183.459 175.73 183.376 175.446 183.351 175.152C183.326 174.859 183.36 174.563 183.451 174.285L186.651 164.513C186.742 164.235 186.888 163.981 187.078 163.769C187.269 163.557 187.499 163.392 187.755 163.284Z" fill="#3F3D56"/>
<path d="M213.132 153.824C213.077 152.396 213.411 150.981 214.092 149.754C214.773 148.526 215.772 147.538 216.966 146.91C220.133 145.154 222.122 141.406 221.25 137.985C220.135 133.605 214.588 130.765 210.094 132.271C208.878 132.736 207.705 133.321 206.59 134.021L203.654 135.713C202.4 136.388 201.19 137.155 200.035 138.009C198.303 139.38 196.946 141.226 196.106 143.353C195.265 145.48 194.971 147.81 195.255 150.101C195.833 154.554 198.546 158.637 202.26 161.433C203.68 162.574 205.321 163.357 207.061 163.726C208.841 164.041 210.823 163.683 212.124 162.493C214.159 160.634 213.948 157.52 213.29 154.92C213.204 154.561 213.15 154.194 213.132 153.824Z" fill="#2F2E41"/>
<path d="M248.535 318H167.952C167.839 318 167.731 317.952 167.652 317.866C167.572 317.781 167.528 317.665 167.528 317.544C167.528 317.423 167.572 317.307 167.652 317.222C167.731 317.136 167.839 317.088 167.952 317.088H248.535C248.647 317.088 248.755 317.136 248.835 317.222C248.914 317.307 248.959 317.423 248.959 317.544C248.959 317.665 248.914 317.781 248.835 317.866C248.755 317.952 248.647 318 248.535 318Z" fill="#CCCCCC"/>
<path d="M117.019 234.85L50.5266 264.166C49.3847 264.668 48.1041 264.662 46.9659 264.151C45.8277 263.639 44.9248 262.663 44.4552 261.437L24.1009 208.117C23.7587 207.218 23.7624 206.21 24.1111 205.313C24.4598 204.417 25.1251 203.706 25.9609 203.337L94.7011 173.03C95.5522 172.656 96.5066 172.66 97.3549 173.041C98.2031 173.423 98.8761 174.15 99.226 175.064L119.558 228.325C120.025 229.553 120.02 230.929 119.544 232.152C119.068 233.375 118.16 234.346 117.019 234.85Z" fill="#E6E6E6"/>
<path d="M52.9352 257.699L111.078 232.064C112.185 231.576 113.067 230.635 113.529 229.449C113.99 228.262 113.994 226.927 113.54 225.737L97.1042 182.681C96.8793 182.092 96.5486 181.556 96.131 181.105C95.7135 180.653 95.2171 180.294 94.6704 180.048C94.1238 179.802 93.5374 179.675 92.9448 179.673C92.3522 179.67 91.7651 179.794 91.2169 180.035L33.0739 205.67C32.5256 205.911 32.0271 206.267 31.6066 206.716C31.1862 207.164 30.8522 207.698 30.6235 208.285C30.3949 208.873 30.2762 209.503 30.2742 210.14C30.2722 210.777 30.3869 211.408 30.6118 211.997L47.0478 255.053C47.2727 255.642 47.6034 256.178 48.021 256.629C48.4386 257.081 48.9349 257.44 49.4816 257.686C50.0283 257.932 50.6147 258.059 51.2072 258.061C51.7998 258.064 52.387 257.94 52.9352 257.699Z" fill="white"/>
<path d="M96.7828 194.423L95.928 194.8L95.9864 194.953L96.8412 194.576L96.7828 194.423Z" fill="#E6E6E6"/>
<path d="M94.2596 195.715L92.5327 196.476L92.4743 196.323L94.2012 195.562L94.2596 195.715ZM90.8058 197.237L89.0789 197.999L89.0204 197.846L90.7473 197.084L90.8058 197.237ZM87.3519 198.76L85.625 199.521L85.5666 199.368L87.2935 198.607L87.3519 198.76ZM83.8981 200.283L82.1712 201.044L82.1128 200.891L83.8397 200.13L83.8981 200.283ZM80.4443 201.806L78.7174 202.567L78.6589 202.414L80.3858 201.653L80.4443 201.806ZM76.9904 203.328L75.2635 204.09L75.2051 203.937L76.932 203.175L76.9904 203.328ZM73.5366 204.851L71.8097 205.612L71.7513 205.459L73.4782 204.698L73.5366 204.851ZM70.0828 206.374L68.3559 207.135L68.2974 206.982L70.0243 206.221L70.0828 206.374ZM66.6289 207.897L64.9021 208.658L64.8436 208.505L66.5705 207.744L66.6289 207.897ZM63.1751 209.419L61.4482 210.181L61.3898 210.028L63.1167 209.266L63.1751 209.419ZM59.7213 210.942L57.9944 211.703L57.9359 211.55L59.6628 210.789L59.7213 210.942ZM56.2675 212.465L54.5406 213.226L54.4821 213.073L56.209 212.312L56.2675 212.465ZM52.8136 213.988L51.0867 214.749L51.0283 214.596L52.7552 213.834L52.8136 213.988ZM49.3598 215.51L47.6329 216.272L47.5744 216.119L49.3013 215.357L49.3598 215.51ZM45.906 217.033L44.1791 217.794L44.1206 217.641L45.8475 216.88L45.906 217.033ZM42.4521 218.556L40.7252 219.317L40.6667 219.164L42.3937 218.403L42.4521 218.556Z" fill="#E6E6E6"/>
<path d="M38.9398 219.925L38.085 220.302L38.1434 220.455L38.9982 220.079L38.9398 219.925Z" fill="#E6E6E6"/>
<path d="M74.1519 221.037L73.2971 221.414L73.3556 221.567L74.2104 221.19L74.1519 221.037Z" fill="#E6E6E6"/>
<path d="M71.6541 222.317L69.9528 223.067L69.8944 222.914L71.5956 222.164L71.6541 222.317ZM68.2516 223.817L66.5503 224.567L66.4919 224.414L68.1931 223.664L68.2516 223.817ZM64.849 225.317L63.1478 226.067L63.0893 225.914L64.7906 225.164L64.849 225.317ZM61.4465 226.817L59.7452 227.567L59.6868 227.414L61.3881 226.664L61.4465 226.817ZM58.044 228.317L56.3427 229.067L56.2842 228.914L57.9855 228.164L58.044 228.317ZM54.6414 229.818L52.9402 230.568L52.8817 230.415L54.583 229.664L54.6414 229.818ZM51.2389 231.318L49.5376 232.068L49.4792 231.915L51.1804 231.165L51.2389 231.318ZM47.8364 232.818L46.1351 233.568L46.0767 233.415L47.7779 232.665L47.8364 232.818Z" fill="#E6E6E6"/>
<path d="M44.3756 234.165L43.5208 234.542L43.5792 234.695L44.434 234.318L44.3756 234.165Z" fill="#E6E6E6"/>
<path d="M60.0545 235.123L59.1997 235.5L59.2582 235.653L60.113 235.276L60.0545 235.123Z" fill="#E6E6E6"/>
<path d="M57.5077 236.425L55.7574 237.196L55.6989 237.043L57.4493 236.271L57.5077 236.425ZM54.007 237.968L52.2567 238.74L52.1982 238.587L53.9485 237.815L54.007 237.968ZM50.5063 239.511L48.756 240.283L48.6975 240.13L50.4479 239.358L50.5063 239.511Z" fill="#E6E6E6"/>
<path d="M46.9474 240.902L46.0925 241.279L46.151 241.432L47.0058 241.055L46.9474 240.902Z" fill="#E6E6E6"/>
<path d="M64.4432 246.619L63.5884 246.996L63.6468 247.149L64.5016 246.773L64.4432 246.619Z" fill="#E6E6E6"/>
<path d="M61.8966 247.921L60.1463 248.693L60.0878 248.54L61.8382 247.768L61.8966 247.921ZM58.3959 249.465L56.6456 250.236L56.5871 250.083L58.3375 249.311L58.3959 249.465ZM54.8952 251.008L53.1449 251.78L53.0864 251.627L54.8368 250.855L54.8952 251.008Z" fill="#E6E6E6"/>
<path d="M51.336 252.398L50.4812 252.775L50.5397 252.928L51.3945 252.551L51.336 252.398Z" fill="#E6E6E6"/>
<path d="M55.4038 250.921L104.676 229.197C105.869 228.67 106.818 227.656 107.315 226.377C107.813 225.099 107.818 223.66 107.33 222.378L97.3746 196.299L97.2783 196.345L85.187 227.415L76.2191 223.386C76.0536 223.311 75.8743 223.278 75.695 223.29C75.5158 223.302 75.3416 223.359 75.1861 223.455C74.9526 223.606 74.772 223.836 74.6721 224.108L68.3352 240.39L61.7784 237.444C61.6369 237.381 61.4851 237.348 61.3317 237.347C61.1784 237.347 61.0264 237.379 60.8845 237.441C60.7426 237.504 60.6136 237.596 60.5048 237.712C60.396 237.828 60.3095 237.966 60.2504 238.118C60.2084 238.229 56.1655 248.889 55.4038 250.921Z" fill="#E6A486"/>
<path d="M55.2522 251.167L55.1101 251.103L60.1803 238.073C60.3145 237.729 60.5702 237.457 60.8913 237.315C61.2123 237.173 61.5725 237.175 61.8929 237.318L68.3202 240.207L74.621 224.015C74.7552 223.671 75.0109 223.398 75.332 223.256C75.6531 223.115 76.0133 223.116 76.3336 223.26L85.1719 227.232L97.3255 195.999L97.4675 196.063L85.2546 227.448L76.2742 223.412C76.1342 223.349 75.9842 223.317 75.8325 223.316C75.6808 223.316 75.5305 223.347 75.3902 223.409C75.2499 223.471 75.1223 223.562 75.0147 223.677C74.9071 223.792 74.8216 223.928 74.7631 224.078L68.4028 240.423L61.8335 237.471C61.5508 237.344 61.233 237.343 60.9497 237.468C60.6665 237.593 60.4408 237.834 60.3223 238.137L55.2522 251.167Z" fill="#3F3D56"/>
<path d="M60.0838 236.358C60.6792 236.358 61.1618 235.839 61.1618 235.199C61.1618 234.56 60.6792 234.041 60.0838 234.041C59.4885 234.041 59.0059 234.56 59.0059 235.199C59.0059 235.839 59.4885 236.358 60.0838 236.358Z" fill="#3F3D56"/>
<path d="M74.181 222.272C74.7763 222.272 75.2589 221.753 75.2589 221.113C75.2589 220.474 74.7763 219.955 74.181 219.955C73.5856 219.955 73.103 220.474 73.103 221.113C73.103 221.753 73.5856 222.272 74.181 222.272Z" fill="#3F3D56"/>
<path d="M96.1321 195.617C96.7275 195.617 97.2101 195.099 97.2101 194.459C97.2101 193.819 96.7275 193.3 96.1321 193.3C95.5368 193.3 95.0542 193.819 95.0542 194.459C95.0542 195.099 95.5368 195.617 96.1321 195.617Z" fill="#3F3D56"/>
<path d="M35.7962 233.885C36.3566 233.585 36.849 233.157 37.2388 232.631C37.6286 232.104 37.9062 231.493 38.0522 230.839C38.1981 230.184 38.2089 229.504 38.0836 228.845C37.9584 228.186 37.7002 227.564 37.3273 227.024L40.5288 193.384H33.61L31.0656 226.232C30.2627 226.965 29.738 227.99 29.5909 229.111C29.4439 230.233 29.6848 231.373 30.2679 232.316C30.851 233.26 31.7358 233.94 32.7547 234.23C33.7736 234.519 34.8558 234.396 35.7962 233.885Z" fill="#FFB8B8"/>
<path d="M42.1488 174.819C47.555 174.819 51.9376 170.11 51.9376 164.3C51.9376 158.49 47.555 153.78 42.1488 153.78C36.7427 153.78 32.3601 158.49 32.3601 164.3C32.3601 170.11 36.7427 174.819 42.1488 174.819Z" fill="#FFB8B8"/>
<path d="M43.9917 212.975C43.5998 212.975 43.2189 212.837 42.9072 212.581C42.5955 212.326 42.3704 211.968 42.2663 211.562C41.4821 208.5 39.4417 203.323 36.2019 196.173C35.4709 194.557 35.0661 192.793 35.014 190.997C34.962 189.201 35.2639 187.413 35.9 185.751C36.536 184.089 37.4918 182.591 38.7047 181.354C39.9176 180.117 41.3601 179.169 42.9377 178.573C44.4327 178.006 46.0183 177.767 47.6009 177.87C49.1834 177.973 50.7307 178.416 52.1512 179.172C53.5716 179.929 54.8364 180.984 55.8708 182.276C56.9051 183.567 57.6879 185.068 58.1729 186.69C60.684 195.151 60.5628 204.214 60.3941 207.718C60.3731 208.14 60.2241 208.543 59.9697 208.865C59.7153 209.187 59.3696 209.411 58.9856 209.502L44.3763 212.93C44.25 212.96 44.121 212.975 43.9917 212.975Z" fill="#FF6584"/>
<path d="M58.1393 312.87H63.0251L65.3497 292.615L58.1384 292.616L58.1393 312.87Z" fill="#FFB8B8"/>
<path d="M72.4487 317.745L57.0924 317.746L57.0921 311.37L66.5153 311.369C67.2945 311.369 68.066 311.534 68.7859 311.854C69.5057 312.175 70.1598 312.644 70.7108 313.236C71.2617 313.828 71.6988 314.531 71.997 315.305C72.2952 316.079 72.4487 316.908 72.4487 317.745Z" fill="#2F2E41"/>
<path d="M9.28052 306.065L13.5624 308.594L24.6795 292.05L18.3605 288.316L9.28052 306.065Z" fill="#FFB8B8"/>
<path d="M19.6343 317.746L6.17756 309.795L9.03594 304.208L17.2935 309.086C18.6724 309.901 19.6937 311.271 20.1327 312.895C20.5716 314.519 20.3924 316.264 19.6343 317.746Z" fill="#2F2E41"/>
<path d="M57.9109 301.628C57.4755 301.627 57.0551 301.457 56.7282 301.148C56.4013 300.839 56.1901 300.412 56.1341 299.948L50.0235 249.344C49.9965 249.12 49.9043 248.911 49.7602 248.747C49.6161 248.583 49.4274 248.472 49.2211 248.43C49.0148 248.388 48.8013 248.417 48.6113 248.513C48.4212 248.609 48.2643 248.767 48.1629 248.965L22.6962 298.619C22.4861 299.025 22.1476 299.335 21.7422 299.495C21.3368 299.655 20.8915 299.653 20.4872 299.49L14.9362 297.217C14.713 297.126 14.5089 296.988 14.3361 296.81C14.1633 296.633 14.0252 296.42 13.93 296.185C13.8347 295.949 13.7842 295.696 13.7814 295.439C13.7786 295.182 13.8235 294.928 13.9136 294.69L31.555 248.116C31.5996 247.998 31.6299 247.874 31.6451 247.747C34.0345 227.872 40.114 217.765 41.9203 215.141C42.0522 214.948 42.1391 214.724 42.1735 214.487C42.2079 214.251 42.1888 214.009 42.1179 213.782L41.8696 212.981C41.7704 212.664 41.7501 212.324 41.8106 211.995C41.8712 211.666 42.0105 211.36 42.2148 211.107C48.7236 203.139 60.0681 207.487 60.182 207.532L60.2388 207.554L60.2744 207.607C72.9951 226.355 68.2918 287.249 67.2198 299.265C67.1798 299.717 66.9925 300.139 66.691 300.456C66.3894 300.774 65.9932 300.966 65.5722 301L58.0502 301.622C58.0035 301.626 57.9571 301.628 57.9109 301.628Z" fill="#2F2E41"/>
<path d="M80.2038 176.519C80.1549 176.751 80.123 176.985 80.1084 177.222L62.9878 187.836L58.8264 185.262L54.3901 191.503L61.3449 196.83C61.9068 197.261 62.5834 197.484 63.2731 197.466C63.9629 197.448 64.6286 197.19 65.1703 196.73L82.8245 181.763C83.6212 182.079 84.4889 182.128 85.312 181.902C86.1352 181.676 86.8748 181.187 87.4326 180.498C87.9903 179.809 88.3397 178.954 88.4344 178.047C88.529 177.14 88.3644 176.223 87.9623 175.418C87.5603 174.614 86.9399 173.96 86.1838 173.544C85.4276 173.128 84.5714 172.969 83.7292 173.089C82.8869 173.208 82.0985 173.601 81.4687 174.213C80.839 174.826 80.3978 175.631 80.2038 176.519Z" fill="#FFB8B8"/>
<path d="M62.4156 188.339L56.8823 196.046C56.7249 196.265 56.5253 196.446 56.2972 196.575C56.0691 196.703 55.8178 196.778 55.5605 196.793C55.3031 196.808 55.0458 196.764 54.8059 196.662C54.5661 196.561 54.3494 196.405 54.1706 196.206L47.9065 189.215C46.8671 188.343 46.1919 187.064 46.0289 185.657C45.8659 184.251 46.2285 182.833 47.0371 181.714C47.8456 180.594 49.0342 179.865 50.3423 179.686C51.6503 179.507 52.9711 179.893 54.0149 180.759L61.8715 185.48C62.0964 185.615 62.2915 185.801 62.4436 186.024C62.5957 186.248 62.7011 186.504 62.7528 186.775C62.8044 187.047 62.801 187.327 62.7429 187.597C62.6847 187.867 62.5731 188.12 62.4156 188.339Z" fill="#FF6584"/>
<path d="M40.9692 201.729L32.0553 199.999C31.8017 199.95 31.5609 199.843 31.3494 199.684C31.1379 199.526 30.9606 199.321 30.8296 199.082C30.6986 198.844 30.6169 198.578 30.5902 198.302C30.5635 198.027 30.5924 197.748 30.6748 197.486L33.5645 188.291C33.8061 186.898 34.5519 185.665 35.6384 184.862C36.7249 184.058 38.0634 183.751 39.3604 184.007C40.6574 184.263 41.8071 185.061 42.5573 186.227C43.3075 187.392 43.597 188.83 43.3623 190.224L43.0804 199.893C43.0723 200.17 43.0087 200.442 42.894 200.69C42.7793 200.938 42.6163 201.156 42.4159 201.331C42.2156 201.505 41.9826 201.631 41.733 201.699C41.4833 201.768 41.2228 201.778 40.9692 201.729Z" fill="#FF6584"/>
<path d="M43.6983 161.88C46.2142 163.73 49.5177 165.633 52.0873 163.662C52.8911 163.004 53.475 162.084 53.7516 161.04C54.0283 159.996 53.9828 158.883 53.6219 157.869C52.3915 154.088 49.011 152.423 45.7783 151.147C41.5759 149.488 37 148.168 32.6617 149.356C28.3233 150.544 24.4892 155.058 25.2724 159.796C25.9022 163.605 29.2459 166.775 28.7712 170.61C28.2935 174.47 24.2542 176.502 20.6881 177.192C17.122 177.882 13.1315 178.104 10.5687 180.856C7.29936 184.368 8.11576 190.645 11.1921 194.352C14.2683 198.06 18.9107 199.74 23.409 200.883C29.3691 202.397 35.8154 203.192 41.476 200.68C47.1366 198.168 51.5416 191.405 49.9018 185.064C49.2092 182.385 47.5775 180.121 46.0006 177.918C44.4237 175.714 42.8269 173.409 42.2254 170.705C41.7242 168.452 42.0952 165.836 43.4856 164.146C43.7384 163.85 43.8976 163.476 43.9402 163.077C43.9827 162.677 43.9065 162.274 43.7225 161.924L43.6983 161.88Z" fill="#2F2E41"/>
<path d="M81.007 318H0.424121C0.311637 318 0.20376 317.952 0.124222 317.866C0.0446837 317.781 0 317.665 0 317.544C0 317.423 0.0446837 317.307 0.124222 317.222C0.20376 317.136 0.311637 317.088 0.424121 317.088H81.007C81.1195 317.088 81.2274 317.136 81.3069 317.222C81.3865 317.307 81.4312 317.423 81.4312 317.544C81.4312 317.665 81.3865 317.781 81.3069 317.866C81.2274 317.952 81.1195 318 81.007 318Z" fill="#CCCCCC"/>
</g>
<defs>
<clipPath id="clip0_9_5083">
<rect width="422" height="318" fill="white"/>
</clipPath>
</defs>
</svg>
