<svg width="400" height="253" viewBox="0 0 400 253" fill="none" xmlns="http://www.w3.org/2000/svg">
<g clip-path="url(#clip0_10_5249)">
<path d="M353.607 167.122C351.669 183.726 347.643 197.057 342.118 207.689C334.765 221.855 322.187 227.563 310.952 233.535C307.706 235.257 304.33 236.725 300.857 237.926C280.412 245.023 257.529 243.141 239.555 239.393C226.948 236.763 214.151 235.144 201.287 234.554C197.618 234.388 193.945 234.306 190.268 234.307C184.599 234.314 82.522 236.253 57.6691 185.922C51.5331 173.507 47.3272 158.34 45.8161 139.854C41.5404 87.5885 65.0404 53.2625 95.3529 30.8259C152.695 -11.6164 231.294 -9.83652 287.79 33.7238C325.423 62.7395 360.658 106.653 353.607 167.122Z" fill="#3F3D56"/>
<path d="M342.117 207.689C334.765 221.855 324.761 231.24 313.526 237.212C310.279 238.935 306.904 240.403 303.43 241.603C282.985 248.701 260.103 246.818 242.128 243.071C229.522 240.44 216.725 238.822 203.86 238.231C200.191 238.066 196.518 237.983 192.842 237.985C187.173 237.992 181.505 238.203 175.838 238.617C139.011 241.324 82.5219 236.253 57.6689 185.922L119.853 65.4461L142.996 124.882L150.382 143.855L170.739 115.913L181.25 101.486L229.117 156.38L242.647 126.493L336.316 202.956L341.54 207.218L342.117 207.689Z" fill="#F2F2F2"/>
<path opacity="0.1" d="M111.029 104.06L120.588 83.0981L133.823 113.622L122.426 91.5565L111.029 104.06Z" fill="black"/>
<path opacity="0.1" d="M203.86 238.231C200.191 238.066 196.518 237.983 192.842 237.985L150.382 143.855L203.86 238.231Z" fill="black"/>
<path opacity="0.1" d="M170.739 115.912L181.25 107.738L229.044 162.9L180.515 115.828L170.739 115.912Z" fill="black"/>
<path opacity="0.1" d="M313.526 237.212C310.279 238.935 306.904 240.403 303.43 241.603L229.118 156.38L313.526 237.212Z" fill="black"/>
<path d="M177.206 38.6002C177.815 38.6002 178.309 38.1062 178.309 37.4969C178.309 36.8876 177.815 36.3937 177.206 36.3937C176.597 36.3937 176.103 36.8876 176.103 37.4969C176.103 38.1062 176.597 38.6002 177.206 38.6002Z" fill="#F2F2F2"/>
<path d="M146.691 76.4787C147.3 76.4787 147.794 75.9848 147.794 75.3755C147.794 74.7662 147.3 74.2722 146.691 74.2722C146.082 74.2722 145.588 74.7662 145.588 75.3755C145.588 75.9848 146.082 76.4787 146.691 76.4787Z" fill="#F2F2F2"/>
<path d="M221.324 82.7305C221.73 82.7305 222.059 82.4012 222.059 81.995C222.059 81.5888 221.73 81.2595 221.324 81.2595C220.918 81.2595 220.588 81.5888 220.588 81.995C220.588 82.4012 220.918 82.7305 221.324 82.7305Z" fill="#F2F2F2"/>
<path d="M66.9116 99.2794C67.3177 99.2794 67.6469 98.9501 67.6469 98.5439C67.6469 98.1376 67.3177 97.8083 66.9116 97.8083C66.5055 97.8083 66.1763 98.1376 66.1763 98.5439C66.1763 98.9501 66.5055 99.2794 66.9116 99.2794Z" fill="#F2F2F2"/>
<path d="M225.735 37.1292C226.141 37.1292 226.471 36.7999 226.471 36.3937C226.471 35.9875 226.141 35.6582 225.735 35.6582C225.329 35.6582 225 35.9875 225 36.3937C225 36.7999 225.329 37.1292 225.735 37.1292Z" fill="#F2F2F2"/>
<path d="M271.324 72.4334C271.73 72.4334 272.059 72.1041 272.059 71.6979C272.059 71.2917 271.73 70.9624 271.324 70.9624C270.918 70.9624 270.588 71.2917 270.588 71.6979C270.588 72.1041 270.918 72.4334 271.324 72.4334Z" fill="#F2F2F2"/>
<path d="M316.177 128.332C316.583 128.332 316.912 128.003 316.912 127.596C316.912 127.19 316.583 126.861 316.177 126.861C315.771 126.861 315.441 127.19 315.441 127.596C315.441 128.003 315.771 128.332 316.177 128.332Z" fill="#F2F2F2"/>
<path d="M112.5 44.5797H111.485V43.5647H110.941V44.5797H109.926V45.1244H110.941V46.139H111.485V45.1244H112.5V44.5797Z" fill="#F2F2F2"/>
<path d="M311.765 156.009H310.75V154.994H310.206V156.009H309.191V156.553H310.206V157.568H310.75V156.553H311.765V156.009Z" fill="#F2F2F2"/>
<path d="M400 225.786C400 231.879 310.457 253 200 253C89.5431 253 0 231.879 0 225.786C0 219.693 89.5431 230.935 200 230.935C310.457 230.935 400 219.693 400 225.786Z" fill="#3F3D56"/>
<path opacity="0.1" d="M400 225.786C400 231.879 310.457 253 200 253C89.5431 253 0 231.879 0 225.786C0 219.693 89.5431 230.935 200 230.935C310.457 230.935 400 219.693 400 225.786Z" fill="black"/>
<path d="M200 236.819C310.457 236.819 400 231.879 400 225.786C400 219.693 310.457 214.754 200 214.754C89.5431 214.754 0 219.693 0 225.786C0 231.879 89.5431 236.819 200 236.819Z" fill="#3F3D56"/>
<path d="M208.823 210.341C208.823 222.527 203.391 219.167 196.691 219.167C189.99 219.167 184.559 222.527 184.559 210.341C184.559 198.154 196.691 175.036 196.691 175.036C196.691 175.036 208.823 198.154 208.823 210.341Z" fill="#FF6584"/>
<path opacity="0.1" d="M202.206 215.003C202.206 220.542 199.737 219.015 196.691 219.015C193.645 219.015 191.176 220.542 191.176 215.003C191.176 209.464 196.691 198.956 196.691 198.956C196.691 198.956 202.206 209.464 202.206 215.003Z" fill="black"/>
<path d="M210.294 222.477H183.088C181.261 222.477 179.779 223.958 179.779 225.786C179.779 227.614 181.261 229.096 183.088 229.096H210.294C212.121 229.096 213.603 227.614 213.603 225.786C213.603 223.958 212.121 222.477 210.294 222.477Z" fill="#2F2E41"/>
<path d="M210.294 215.857H183.088C181.261 215.857 179.779 217.339 179.779 219.167C179.779 220.995 181.261 222.477 183.088 222.477H210.294C212.121 222.477 213.603 220.995 213.603 219.167C213.603 217.339 212.121 215.857 210.294 215.857Z" fill="#2F2E41"/>
<path d="M50.3677 180.393C50.3677 200.746 63.1322 217.215 78.9066 217.215L50.3677 180.393Z" fill="#3F3D56"/>
<path d="M78.9067 217.215C78.9067 196.633 93.1512 179.979 110.755 179.979L78.9067 217.215Z" fill="#E6A486"/>
<path d="M60.708 182.238C60.708 201.571 68.8477 217.215 78.9068 217.215L60.708 182.238Z" fill="#E6A486"/>
<path d="M78.9067 217.215C78.9067 190.916 95.3711 169.636 115.718 169.636L78.9067 217.215Z" fill="#3F3D56"/>
<path d="M72.9028 217.474C72.9028 217.474 76.9501 217.35 78.1699 216.481C79.3896 215.612 84.3956 214.575 84.6982 215.968C85.0008 217.361 90.7806 222.898 86.2112 222.935C81.6418 222.972 75.594 222.223 74.3766 221.481C73.1592 220.739 72.9028 217.474 72.9028 217.474Z" fill="#A8A8A8"/>
<path opacity="0.2" d="M86.2927 222.45C81.7234 222.487 75.6755 221.738 74.4581 220.996C73.531 220.431 73.1616 218.404 73.0379 217.469C72.9523 217.473 72.9028 217.474 72.9028 217.474C72.9028 217.474 73.1592 220.739 74.3766 221.481C75.594 222.223 81.6418 222.972 86.2112 222.935C87.5302 222.924 87.9858 222.455 87.9608 221.76C87.7776 222.18 87.2745 222.442 86.2927 222.45Z" fill="black"/>
<path d="M265.231 193.828C265.231 207.814 274.003 219.13 284.842 219.13L265.231 193.828Z" fill="#3F3D56"/>
<path d="M284.842 219.13C284.842 204.988 294.63 193.544 306.726 193.544L284.842 219.13Z" fill="#E6A486"/>
<path d="M272.336 195.096C272.336 208.381 277.93 219.13 284.842 219.13L272.336 195.096Z" fill="#E6A486"/>
<path d="M284.842 219.13C284.842 201.059 296.155 186.437 310.137 186.437L284.842 219.13Z" fill="#3F3D56"/>
<path d="M280.716 219.309C280.716 219.309 283.497 219.223 284.336 218.626C285.174 218.029 288.614 217.316 288.822 218.274C289.029 219.231 293.001 223.036 289.861 223.061C286.721 223.086 282.566 222.572 281.729 222.062C280.892 221.552 280.716 219.309 280.716 219.309Z" fill="#A8A8A8"/>
<path opacity="0.2" d="M289.917 222.728C286.777 222.753 282.622 222.238 281.785 221.729C281.148 221.341 280.894 219.948 280.809 219.305C280.75 219.308 280.716 219.309 280.716 219.309C280.716 219.309 280.892 221.552 281.729 222.062C282.566 222.572 286.721 223.086 289.861 223.061C290.767 223.054 291.081 222.731 291.063 222.253C290.937 222.542 290.592 222.722 289.917 222.728Z" fill="black"/>
<path d="M328.608 227.528C328.608 227.528 332.784 226.893 333.939 225.84C335.093 224.787 340.149 223.086 340.636 224.491C341.124 225.897 347.803 230.908 343.075 231.518C338.347 232.128 331.989 232.11 330.636 231.494C329.282 230.878 328.608 227.528 328.608 227.528Z" fill="#A8A8A8"/>
<path opacity="0.2" d="M343.099 231.005C338.371 231.616 332.013 231.597 330.659 230.981C329.629 230.512 328.992 228.459 328.747 227.506C328.659 227.521 328.608 227.528 328.608 227.528C328.608 227.528 329.282 230.878 330.636 231.494C331.989 232.11 338.347 232.128 343.075 231.518C344.44 231.342 344.853 230.799 344.74 230.082C344.603 230.54 344.115 230.874 343.099 231.005Z" fill="black"/>
<path d="M225.831 227.226C225.831 227.226 229.356 226.689 230.33 225.801C231.305 224.913 235.571 223.477 235.982 224.663C236.394 225.849 242.031 230.078 238.041 230.593C234.05 231.108 228.685 231.093 227.542 230.573C226.4 230.053 225.831 227.226 225.831 227.226Z" fill="#A8A8A8"/>
<path opacity="0.2" d="M238.061 230.16C234.07 230.676 228.705 230.66 227.562 230.14C226.692 229.744 226.155 228.012 225.949 227.207C225.874 227.219 225.831 227.226 225.831 227.226C225.831 227.226 226.4 230.053 227.542 230.573C228.685 231.093 234.05 231.108 238.041 230.593C239.192 230.444 239.541 229.986 239.446 229.381C239.33 229.767 238.918 230.05 238.061 230.16Z" fill="black"/>
<path d="M44.9961 225.466C44.9961 225.466 47.74 225.048 48.4986 224.356C49.2572 223.665 52.5785 222.547 52.8989 223.47C53.2194 224.394 57.6076 227.686 54.5012 228.087C51.3948 228.488 47.2178 228.476 46.3284 228.071C45.439 227.666 44.9961 225.466 44.9961 225.466Z" fill="#A8A8A8"/>
<path opacity="0.2" d="M54.5168 227.75C51.4104 228.151 47.2334 228.139 46.344 227.734C45.6666 227.426 45.2486 226.077 45.0876 225.451C45.0297 225.46 44.9961 225.466 44.9961 225.466C44.9961 225.466 45.439 227.666 46.3284 228.071C47.2178 228.476 51.3948 228.488 54.5012 228.087C55.3979 227.971 55.6694 227.614 55.5952 227.143C55.505 227.444 55.1843 227.664 54.5168 227.75Z" fill="black"/>
<path opacity="0.1" d="M141.065 221.136C141.065 232.25 125.578 228.813 106.616 228.813C87.6545 228.813 72.3979 232.25 72.3979 221.136C72.3979 210.023 87.8825 207.606 106.844 207.606C125.806 207.606 141.065 210.023 141.065 221.136Z" fill="black"/>
<path d="M141.065 218.4C141.065 229.514 125.578 226.076 106.616 226.076C87.6545 226.076 72.3979 229.514 72.3979 218.4C72.3979 207.287 87.8825 204.869 106.844 204.869C125.806 204.869 141.065 207.287 141.065 218.4Z" fill="#3F3D56"/>
<path d="M144.017 167.482C143.103 167.949 142.235 168.5 141.423 169.127C140.607 169.759 139.983 170.605 139.619 171.57C139.162 170.5 138.788 169.396 138.502 168.268C137.858 166.243 137.095 164.258 136.219 162.323C137.658 161.775 138.904 160.818 139.807 159.571C141.571 161.328 143.385 163.161 144.263 165.492C144.414 165.893 144.854 166.321 144.957 166.681C145.101 167.189 144.402 167.27 144.017 167.482Z" fill="#FFBFC5"/>
<path d="M160.622 210.321C162.549 210.93 164.347 211.892 165.923 213.158C166.041 213.232 166.127 213.349 166.164 213.484C166.203 213.789 165.796 213.914 165.5 213.999C164.63 214.25 164.074 215.067 163.433 215.707C162.792 216.347 161.763 216.849 161.015 216.338C160.819 216.188 160.648 216.007 160.508 215.803L157.35 211.68C158.42 211.081 159.546 210.587 160.712 210.204" fill="#F1F1F1"/>
<path d="M166.299 211.178C166.717 211.605 166.899 212.219 167.309 212.653C167.585 212.916 167.9 213.135 168.243 213.302L170.66 214.632C171.031 214.852 171.422 215.036 171.827 215.184C172.282 215.311 172.746 215.407 173.214 215.473C173.883 215.599 174.538 215.792 175.169 216.05C175.643 216.244 176.171 216.579 176.169 217.091C176.149 217.341 176.047 217.578 175.879 217.764C174.926 218.964 173.24 219.23 171.716 219.391C168.418 219.74 165.042 220.002 161.818 219.224C161.189 219.108 160.594 218.851 160.079 218.471C159.106 217.665 158.912 216.195 159.275 214.985C159.378 214.521 159.652 214.112 160.043 213.842C160.554 213.549 161.191 213.685 161.777 213.64C162.402 213.555 163.007 213.362 163.565 213.07C163.934 212.904 164.358 212.69 164.437 212.251C164.51 211.844 164.033 211.437 164.133 211.073C164.356 210.267 165.914 210.785 166.299 211.178Z" fill="#575A89"/>
<path opacity="0.1" d="M166.299 211.178C166.717 211.605 166.899 212.219 167.309 212.653C167.585 212.916 167.9 213.135 168.243 213.302L170.66 214.632C171.031 214.852 171.422 215.036 171.827 215.184C172.282 215.311 172.746 215.407 173.214 215.473C173.883 215.599 174.538 215.792 175.169 216.05C175.643 216.244 176.171 216.579 176.169 217.091C176.149 217.341 176.047 217.578 175.879 217.764C174.926 218.964 173.24 219.23 171.716 219.391C168.418 219.74 165.042 220.002 161.818 219.224C161.189 219.108 160.594 218.851 160.079 218.471C159.106 217.665 158.912 216.195 159.275 214.985C159.378 214.521 159.652 214.112 160.043 213.842C160.554 213.549 161.191 213.685 161.777 213.64C162.402 213.555 163.007 213.362 163.565 213.07C163.934 212.904 164.358 212.69 164.437 212.251C164.51 211.844 164.033 211.437 164.133 211.073C164.356 210.267 165.914 210.785 166.299 211.178Z" fill="black"/>
<path d="M171.905 224.38C172.243 224.603 172.582 224.826 172.92 225.05C173.231 225.216 173.487 225.469 173.657 225.778C173.877 226.295 173.58 226.88 173.249 227.335C172.255 228.693 170.9 229.744 169.337 230.367C168.795 230.593 168.222 230.736 167.638 230.791C167.504 230.812 167.367 230.795 167.243 230.741C166.934 230.578 166.978 230.135 166.974 229.786C166.963 228.77 166.197 227.945 165.508 227.199C164.819 226.454 164.116 225.535 164.274 224.532C164.417 223.941 164.719 223.401 165.149 222.971C165.53 222.492 165.978 222.069 166.479 221.716C167.195 221.247 167.448 221.499 168.123 221.929C169.39 222.737 170.65 223.554 171.905 224.38Z" fill="#F1F1F1"/>
<path d="M168.606 229.327C168.882 229.397 169.171 229.401 169.449 229.338C169.726 229.275 169.985 229.148 170.205 228.966C170.641 228.599 170.994 228.144 171.243 227.631C171.49 227.175 171.705 226.702 171.886 226.216C172.098 225.646 172.295 225.017 172.795 224.672C173.401 224.253 174.255 224.417 174.871 224.821C175.452 225.274 175.985 225.785 176.463 226.346C177.742 227.54 179.294 228.403 180.983 228.862C182.665 229.316 184.369 229.681 186.09 229.954C186.434 230 186.766 230.107 187.073 230.27C187.764 230.692 187.995 231.634 187.802 232.421C187.558 233.198 187.12 233.9 186.53 234.46C186.065 235.011 185.489 235.458 184.838 235.77C184.289 235.971 183.71 236.08 183.125 236.094C180.292 236.287 177.445 236.064 174.677 235.433C173.659 235.156 172.625 234.95 171.579 234.814C170.942 234.758 170.301 234.776 169.662 234.732C168.394 234.645 167.153 234.318 166.006 233.768C165.727 233.665 165.492 233.47 165.34 233.214C165.257 232.979 165.24 232.726 165.29 232.482L165.714 228.775C165.75 228.452 165.858 228.051 166.179 228C166.484 227.953 166.706 228.265 166.898 228.507C167.27 228.954 167.781 229.263 168.348 229.388C168.916 229.512 169.509 229.443 170.034 229.193" fill="#575A89"/>
<path d="M144.068 182.584C145.928 182.374 148.084 182.339 149.342 183.726C150.113 184.576 150.347 185.766 150.614 186.883C151.031 188.758 151.709 190.564 152.628 192.251C153.22 193.295 153.937 194.275 154.391 195.387C154.856 196.526 155.027 197.759 155.299 198.958C156.389 203.7 159.05 207.933 162.849 210.971C162.178 212.796 160.238 213.838 158.351 214.305C157.951 214.474 157.505 214.505 157.086 214.39C156.667 214.276 156.298 214.024 156.04 213.675C155.157 212.721 154.334 211.714 153.577 210.657C150.857 207.024 148.095 203.314 146.614 199.023C146.094 197.517 145.574 195.76 144.111 195.131C143.276 194.772 142.322 194.884 141.427 195.036C139.426 195.375 137.457 195.881 135.54 196.548C133.496 197.259 131.156 198.134 129.285 197.046C128.166 196.395 127.5 195.144 127.254 193.873C127.069 192.589 127.067 191.285 127.249 190.001C127.261 189.42 127.4 188.848 127.657 188.327C127.916 187.937 128.248 187.601 128.635 187.337C130.305 186.068 132.163 185.067 134.142 184.369C136.032 183.703 138.063 183.477 140.035 183.148C141.374 182.924 142.719 182.736 144.068 182.584Z" fill="#575A89"/>
<path opacity="0.1" d="M144.068 182.584C145.928 182.374 148.084 182.339 149.342 183.726C150.113 184.576 150.347 185.766 150.614 186.883C151.031 188.758 151.709 190.564 152.628 192.251C153.22 193.295 153.937 194.275 154.391 195.387C154.856 196.526 155.027 197.759 155.299 198.958C156.389 203.7 159.05 207.933 162.849 210.971C162.178 212.796 160.238 213.838 158.351 214.305C157.951 214.474 157.505 214.505 157.086 214.39C156.667 214.276 156.298 214.024 156.04 213.675C155.157 212.721 154.334 211.714 153.577 210.657C150.857 207.024 148.095 203.314 146.614 199.023C146.094 197.517 145.574 195.76 144.111 195.131C143.276 194.772 142.322 194.884 141.427 195.036C139.426 195.375 137.457 195.881 135.54 196.548C133.496 197.259 131.156 198.134 129.285 197.046C128.166 196.395 127.5 195.144 127.254 193.873C127.069 192.589 127.067 191.285 127.249 190.001C127.261 189.42 127.4 188.848 127.657 188.327C127.916 187.937 128.248 187.601 128.635 187.337C130.305 186.068 132.163 185.067 134.142 184.369C136.032 183.703 138.063 183.477 140.035 183.148C141.374 182.924 142.719 182.736 144.068 182.584Z" fill="black"/>
<path d="M154.713 195.997C155.576 196.432 156.368 196.995 157.063 197.666C157.781 198.512 158.325 199.49 158.667 200.545C158.82 200.897 158.914 201.272 158.945 201.654C158.959 201.846 158.929 202.038 158.858 202.216C158.786 202.395 158.675 202.554 158.533 202.684C158.189 202.905 157.781 203.005 157.373 202.967C156.834 202.972 156.295 202.958 155.756 202.925C155.429 202.923 155.104 202.861 154.799 202.744C154.519 202.601 154.266 202.409 154.053 202.179C153.105 201.298 152.329 200.25 151.763 199.086C151.373 198.225 150.73 196.241 151.345 195.345C151.978 194.422 154.044 195.617 154.713 195.997Z" fill="#FFBFC5"/>
<path d="M128.642 195.69C131.392 196.571 134.32 196.671 137.195 196.94C142.031 197.392 146.809 198.337 151.453 199.759C152.423 199.996 153.336 200.421 154.141 201.011C154.763 201.586 155.289 202.256 155.701 202.996C156.456 204.147 157.141 205.344 157.75 206.58C158.272 207.696 158.67 208.866 159.156 209.999C160.789 213.791 163.37 217.099 166.652 219.603C167.252 220.06 167.92 220.556 168.074 221.294C168.143 221.769 168.066 222.254 167.852 222.683C167.143 224.335 165.671 225.537 164.127 226.456C163.463 226.852 162.733 227.253 162.406 227.954C160.059 226.984 158.314 224.918 156.862 222.834C155.41 220.751 154.122 218.512 152.26 216.784C151.44 216.023 150.509 215.36 149.864 214.446C148.88 213.05 148.613 211.141 147.288 210.064C145.954 208.979 144.039 209.127 142.328 209.295C133.563 210.153 124.73 210.058 115.985 209.01C114.167 208.792 112.299 208.514 110.724 207.58C109.149 206.645 107.923 204.892 108.146 203.074C108.355 201.373 109.772 200.023 111.352 199.357C112.931 198.691 114.677 198.572 116.38 198.38C120.559 197.972 124.676 197.069 128.642 195.69Z" fill="#575A89"/>
<path d="M103.497 199.223C103.713 197.78 104.273 196.413 104.624 194.998C104.801 194.107 105.024 193.226 105.293 192.358C105.301 192.334 105.311 192.31 105.321 192.286C105.41 192.278 105.497 192.251 105.574 192.207C105.652 192.162 105.719 192.101 105.771 192.028C105.819 191.901 105.832 191.765 105.809 191.631C105.802 191.49 105.806 191.348 105.822 191.208C106.397 190.243 107.025 189.311 107.704 188.416C108.895 186.729 109.927 184.935 110.956 183.145C111.8 181.677 112.646 180.206 113.344 178.663C113.868 177.507 114.309 176.311 114.888 175.181C116.95 171.159 120.656 168.197 124.642 166.068C128.466 164.026 132.599 162.649 136.619 161.026C136.723 161.127 136.817 161.238 136.9 161.357C139.072 164.326 139.306 168.23 140.2 171.799C140.561 173.24 141.043 174.676 141.043 176.162C141.041 178.355 139.993 180.395 138.952 182.325C138.021 184.169 136.922 185.924 135.669 187.566C135.054 188.328 134.376 189.037 133.758 189.796C131.224 192.904 129.76 196.726 128.338 200.476C127.514 202.647 126.168 204.573 125.263 206.711C124.915 207.533 124.714 208.419 124.277 209.197C123.84 209.975 123.08 210.659 122.187 210.663C121.926 210.656 121.667 210.615 121.416 210.542C118.187 209.711 115.482 207.574 112.799 205.594C112.32 205.241 111.838 204.891 111.335 204.572C110.828 204.25 110.3 203.961 109.773 203.672C109.374 203.454 108.975 203.235 108.576 203.016C107.267 202.299 105.957 201.58 104.593 200.974C104.183 200.809 103.79 200.607 103.417 200.37C103.413 199.986 103.44 199.602 103.497 199.223Z" fill="#E6A486"/>
<path d="M145.72 167.236C149.83 167.236 153.161 163.903 153.161 159.793C153.161 155.682 149.83 152.349 145.72 152.349C141.611 152.349 138.279 155.682 138.279 159.793C138.279 163.903 141.611 167.236 145.72 167.236Z" fill="#FFBFC5"/>
<path d="M150.726 156.31C150.906 156.625 151.178 156.876 151.506 157.03C151.834 157.184 152.201 157.234 152.558 157.172C152.913 157.1 153.249 156.955 153.544 156.745C153.838 156.534 154.085 156.264 154.268 155.952C154.63 155.323 154.847 154.622 154.902 153.899C154.96 153.621 154.962 153.335 154.909 153.056C154.856 152.778 154.748 152.512 154.592 152.276C154.314 152.007 153.996 151.784 153.648 151.615C153.169 151.316 152.766 150.908 152.473 150.425C152.264 150.081 152.115 149.705 151.928 149.349C151.251 148.063 149.934 147.017 148.482 147.065C147.785 147.087 147.12 147.353 146.432 147.473C144.125 147.878 141.618 146.657 139.478 147.609C138.951 147.865 138.462 148.192 138.023 148.58C137.42 149.077 136.841 149.6 136.286 150.151C135.803 150.562 135.438 151.094 135.227 151.692C134.936 152.784 135.627 154.004 135.187 155.045C135.037 155.343 134.857 155.626 134.651 155.888C134.165 156.6 134.693 159.381 134.639 160.241C134.577 160.663 134.684 161.091 134.937 161.434C135.288 161.825 135.879 161.859 136.404 161.866L137.37 161.877C137.514 161.887 137.659 161.872 137.799 161.833C137.988 161.749 138.155 161.62 138.285 161.458C139.088 160.612 139.262 157.842 140.429 157.852C140.607 157.843 140.783 157.888 140.933 157.983C141.144 158.138 141.207 158.423 141.356 158.638C141.528 158.84 141.76 158.982 142.018 159.042C142.276 159.103 142.547 159.078 142.79 158.973C143.272 158.75 143.691 158.411 144.01 157.986C144.328 157.563 144.714 157.194 145.151 156.896C145.773 156.533 146.476 156.375 147.081 155.965C147.587 155.623 147.875 155.125 148.329 154.747C148.51 154.59 148.739 154.498 148.978 154.485C149.217 154.471 149.454 154.537 149.652 154.673C150.368 155.046 150.399 155.659 150.726 156.31Z" fill="#2F2E41"/>
<path opacity="0.1" d="M133.533 169.424C135.271 169.177 137.042 169.319 138.718 169.841C139.277 169.968 139.783 170.268 140.163 170.698C140.379 171.024 140.52 171.394 140.575 171.781C140.917 173.561 140.697 175.403 139.947 177.053C139.894 177.135 139.858 177.228 139.843 177.325C139.828 177.423 139.834 177.522 139.861 177.617C139.936 177.731 140.035 177.829 140.15 177.904C140.255 178.004 140.337 178.126 140.391 178.26C140.445 178.395 140.47 178.539 140.464 178.684C140.458 178.829 140.421 178.97 140.357 179.1C140.292 179.23 140.2 179.344 140.088 179.436C139.949 179.537 139.767 179.625 139.74 179.795C139.711 179.98 139.884 180.125 140.019 180.255C140.218 180.449 140.364 180.689 140.444 180.955C140.525 181.22 140.538 181.502 140.481 181.773C140.408 181.992 140.358 182.217 140.332 182.446C140.36 182.726 140.442 182.998 140.574 183.246C140.801 183.807 140.878 184.416 140.799 185.015C140.727 185.298 140.72 185.594 140.778 185.88C140.86 186.07 140.971 186.245 141.107 186.4C141.642 187.122 141.759 188.329 140.983 188.781C141.315 188.952 141.586 189.221 141.757 189.553C141.928 189.885 141.992 190.261 141.939 190.631C142.402 190.383 142.964 190.7 143.35 191.056C143.736 191.412 144.13 191.848 144.655 191.874C145.02 191.893 145.406 191.703 145.739 191.854C146.247 192.083 146.229 192.906 146.728 193.152C147.166 193.369 147.776 193.016 148.149 193.331C148.279 193.441 148.345 193.61 148.47 193.725C148.753 193.984 149.195 193.874 149.579 193.859C150.034 193.872 150.477 194.003 150.866 194.24C151.254 194.478 151.574 194.812 151.793 195.211C152.221 196.014 152.48 196.897 152.552 197.804C152.65 198.298 152.641 198.806 152.524 199.295C152.461 199.538 152.328 199.758 152.141 199.926C151.954 200.094 151.722 200.204 151.474 200.241C146.907 200.537 142.401 199.442 137.955 198.359C136.649 198.041 135.321 197.668 134.231 196.88C133.242 196.165 132.514 195.152 131.804 194.158C130.496 192.325 129.179 190.478 128.243 188.429C127.037 185.793 126.5 182.909 125.973 180.058C125.791 179.294 125.727 178.507 125.781 177.723C125.939 176.807 126.29 175.934 126.809 175.163C127.438 174.14 128.133 173.16 128.89 172.229C130.04 170.755 131.693 169.757 133.533 169.424Z" fill="black"/>
<path d="M133.834 169.123C135.572 168.876 137.343 169.018 139.019 169.54C139.579 169.667 140.084 169.967 140.464 170.397C140.68 170.723 140.821 171.093 140.876 171.48C141.218 173.26 140.999 175.102 140.249 176.752C140.195 176.834 140.16 176.927 140.145 177.024C140.13 177.121 140.135 177.221 140.162 177.315C140.237 177.43 140.336 177.528 140.451 177.602C140.556 177.703 140.638 177.824 140.692 177.959C140.746 178.093 140.771 178.238 140.765 178.383C140.759 178.527 140.723 178.669 140.658 178.799C140.593 178.929 140.502 179.043 140.389 179.135C140.251 179.236 140.069 179.324 140.041 179.494C140.012 179.679 140.186 179.824 140.321 179.953C140.519 180.147 140.665 180.388 140.746 180.654C140.826 180.919 140.839 181.201 140.782 181.472C140.709 181.691 140.659 181.916 140.633 182.145C140.661 182.425 140.743 182.697 140.876 182.945C141.102 183.506 141.179 184.115 141.1 184.714C141.028 184.997 141.021 185.293 141.079 185.579C141.161 185.769 141.272 185.944 141.408 186.099C141.943 186.82 142.06 188.027 141.284 188.48C141.616 188.65 141.887 188.92 142.058 189.252C142.23 189.583 142.293 189.96 142.24 190.33C142.704 190.082 143.265 190.399 143.651 190.755C144.037 191.111 144.431 191.547 144.956 191.573C145.322 191.592 145.707 191.402 146.041 191.552C146.548 191.782 146.531 192.605 147.03 192.851C147.468 193.068 148.077 192.715 148.45 193.03C148.58 193.139 148.646 193.309 148.771 193.424C149.055 193.683 149.497 193.573 149.88 193.558C150.335 193.571 150.779 193.702 151.167 193.939C151.555 194.176 151.875 194.511 152.094 194.91C152.523 195.713 152.781 196.596 152.853 197.503C152.952 197.996 152.942 198.505 152.825 198.994C152.762 199.237 152.629 199.457 152.442 199.625C152.256 199.793 152.024 199.903 151.775 199.94C147.209 200.236 142.703 199.14 138.256 198.058C136.95 197.739 135.622 197.367 134.533 196.579C133.543 195.863 132.815 194.851 132.106 193.857C130.797 192.024 129.48 190.177 128.544 188.128C127.338 185.492 126.801 182.608 126.274 179.757C126.093 178.993 126.028 178.206 126.083 177.422C126.241 176.506 126.591 175.633 127.111 174.862C127.739 173.839 128.434 172.859 129.191 171.928C130.342 170.454 131.995 169.455 133.834 169.123Z" fill="#E6A486"/>
</g>
<defs>
<clipPath id="clip0_10_5249">
<rect width="400" height="253" fill="white"/>
</clipPath>
</defs>
</svg>
