<svg width="45" height="45" viewBox="0 0 45 45" fill="none" xmlns="http://www.w3.org/2000/svg">
<path d="M29.2321 26.943C29.4277 27.774 29.5312 28.6405 29.5312 29.5312C29.5312 35.7445 24.4945 40.7812 18.2812 40.7812V31.7819M29.2321 26.943C36.2332 21.8271 40.7813 13.5539 40.7813 4.21875C31.4465 4.21915 23.174 8.76724 18.0585 15.7683M29.2321 26.943C26.0285 29.2839 22.3113 30.9638 18.2812 31.7819M18.0585 15.7683C17.2271 15.5724 16.36 15.4688 15.4687 15.4688C9.25555 15.4688 4.21875 20.5055 4.21875 26.7188H13.2201M18.0585 15.7683C15.7178 18.9718 14.0381 22.6888 13.2201 26.7188M18.2812 31.7819C18.0874 31.8212 17.8927 31.8586 17.6974 31.8939C15.997 30.5456 14.4561 29.0047 13.1077 27.3042C13.1432 27.1084 13.1806 26.9132 13.2201 26.7188M9.02233 31.2014C6.96025 32.7397 5.625 35.1983 5.625 37.9688C5.625 38.4129 5.65931 38.849 5.72543 39.2746C6.15102 39.3407 6.58713 39.375 7.03125 39.375C9.80171 39.375 12.2603 38.0397 13.7986 35.9777M30.9375 16.875C30.9375 18.4283 29.6783 19.6875 28.125 19.6875C26.5717 19.6875 25.3125 18.4283 25.3125 16.875C25.3125 15.3217 26.5717 14.0625 28.125 14.0625C29.6783 14.0625 30.9375 15.3217 30.9375 16.875Z" stroke="#444444" stroke-opacity="0.7" stroke-width="1.5" stroke-linecap="round" stroke-linejoin="round"/>
</svg>
