<svg width="24" height="24" viewBox="0 0 40 40" fill="none" xmlns="http://www.w3.org/2000/svg">
<path d="M29.9692 31.208C27.6868 28.1958 24.0707 26.25 20 26.25C15.9293 26.25 12.3132 28.1958 10.0308 31.208M29.9692 31.208C33.0558 28.4606 35 24.4573 35 20C35 11.7157 28.2843 5 20 5C11.7157 5 5 11.7157 5 20C5 24.4573 6.94417 28.4606 10.0308 31.208M29.9692 31.208C27.3192 33.5669 23.8269 35 20 35C16.1731 35 12.6808 33.5669 10.0308 31.208M25 16.25C25 19.0114 22.7614 21.25 20 21.25C17.2386 21.25 15 19.0114 15 16.25C15 13.4886 17.2386 11.25 20 11.25C22.7614 11.25 25 13.4886 25 16.25Z" stroke="white" stroke-width="1.5" stroke-linecap="round" stroke-linejoin="round"/>
</svg>
