<svg width="18" height="18" viewBox="0 0 18 18" fill="none" xmlns="http://www.w3.org/2000/svg">
<path fill-rule="evenodd" clip-rule="evenodd" d="M12 0.75C12 0.335786 12.3358 0 12.75 0L17.25 1.78814e-07C17.6642 2.23517e-07 18 0.335787 18 0.75V5.25C18 5.66421 17.6642 6 17.25 6C16.8358 6 16.5 5.66421 16.5 5.25V2.56066L12.5303 6.53033C12.2374 6.82322 11.7626 6.82322 11.4697 6.53033C11.1768 6.23744 11.1768 5.76256 11.4697 5.46967L15.4393 1.5H12.75C12.3358 1.5 12 1.16421 12 0.75ZM0 0.75C0 0.335787 0.335786 1.78814e-07 0.75 1.78814e-07H5.25C5.66421 1.78814e-07 6 0.335787 6 0.75C6 1.16421 5.66421 1.5 5.25 1.5H2.56066L6.53033 5.46967C6.82322 5.76256 6.82322 6.23744 6.53033 6.53033C6.23744 6.82322 5.76256 6.82322 5.46967 6.53033L1.5 2.56066V5.25C1.5 5.66421 1.16421 6 0.75 6C0.335786 6 0 5.66421 0 5.25V0.75ZM11.4697 12.5303C11.1768 12.2374 11.1768 11.7626 11.4697 11.4697C11.7626 11.1768 12.2374 11.1768 12.5303 11.4697L16.5 15.4393V12.75C16.5 12.3358 16.8358 12 17.25 12C17.6642 12 18 12.3358 18 12.75V17.25C18 17.6642 17.6642 18 17.25 18H12.75C12.3358 18 12 17.6642 12 17.25C12 16.8358 12.3358 16.5 12.75 16.5H15.4393L11.4697 12.5303ZM6.53033 11.4697C6.82322 11.7626 6.82322 12.2374 6.53033 12.5303L2.56066 16.5H5.25C5.66421 16.5 6 16.8358 6 17.25C6 17.6642 5.66421 18 5.25 18H0.75C0.335786 18 0 17.6642 0 17.25V12.75C0 12.3358 0.335786 12 0.75 12C1.16421 12 1.5 12.3358 1.5 12.75V15.4393L5.46967 11.4697C5.76256 11.1768 6.23744 11.1768 6.53033 11.4697Z" fill="#0F172A"/>
</svg>
